<svg width="500" height="501" viewBox="0 0 500 501" fill="none" xmlns="http://www.w3.org/2000/svg">
<path d="M54.9998 302.381L63.6498 296.781C63.6498 296.781 67.8498 274.471 64.7298 254.781C60.3498 227.001 41.4698 217.451 34.6098 220.191C27.7498 222.931 26.1298 231.191 38.5198 247.191C45.8298 256.651 55.2298 276.641 54.9998 302.381Z" fill="white" stroke="black" stroke-width="2"/>
<g opacity="0.3">
<path d="M54.9998 302.381L63.6498 296.781C63.6498 296.781 67.8498 274.471 64.7298 254.781C60.3498 227.001 41.4698 217.451 34.6098 220.191C27.7498 222.931 26.1298 231.191 38.5198 247.191C45.8298 256.651 55.2298 276.641 54.9998 302.381Z" fill="white" stroke="black" stroke-width="2"/>
</g>
<path d="M58.1502 291.371H58.0602C57.8982 291.346 57.7522 291.259 57.6532 291.129C57.5542 290.998 57.5101 290.834 57.5302 290.671C61.1202 264.671 50.6802 236.251 38.9402 224.781C38.8222 224.666 38.7548 224.508 38.753 224.343C38.7511 224.178 38.8149 224.019 38.9302 223.901C39.0456 223.783 39.2031 223.716 39.3682 223.714C39.5332 223.712 39.6922 223.776 39.8102 223.891C51.7602 235.561 62.4002 264.451 58.7602 290.831C58.7409 290.98 58.6685 291.116 58.5564 291.215C58.4442 291.315 58.3 291.37 58.1502 291.371Z" fill="white" stroke="black" stroke-width="2"/>
<path d="M33.2198 316.451C31.9198 317.191 28.2198 314.341 27.2198 313.651C25.4635 312.454 24.0447 310.825 23.0998 308.921C22.0455 306.749 21.6959 304.302 22.0998 301.921C22.3079 300.666 22.6019 299.426 22.9798 298.211C23.3298 297.011 23.6698 295.811 23.9798 294.611C24.4005 293.45 24.5775 292.214 24.4998 290.981C24.1898 288.521 21.9998 286.801 20.0198 285.311C17.8198 283.671 15.5398 281.501 15.5498 278.541C15.7075 276.242 16.6257 274.061 18.1598 272.341C19.5798 270.541 21.2598 268.961 22.5398 267.061C23.5475 265.743 24.0734 264.12 24.0298 262.461C23.8921 261.447 23.552 260.471 23.0298 259.591C22.0298 257.661 20.6098 255.891 19.8898 253.821C19.1698 251.751 19.2698 249.171 20.8898 247.691C22.2098 246.471 24.1898 246.301 25.9798 246.421C27.6624 246.627 29.2799 247.197 30.7198 248.091C35.4198 250.701 38.1098 256.271 43.0998 258.281C45.0666 258.901 47.0706 259.395 49.0998 259.761C51.0998 260.291 53.1498 261.321 54.0998 263.171C55.9298 266.831 52.5298 271.341 53.8198 275.221C54.9598 278.661 58.2998 279.971 60.1698 283.071C60.9342 284.44 61.2424 286.016 61.0498 287.571C60.8866 290.199 60.2426 292.775 59.1498 295.171C57.916 297.658 56.5301 300.065 54.9998 302.381L33.2198 316.451Z" fill="white" stroke="black" stroke-width="2"/>
<g opacity="0.65">
<path d="M33.2198 316.451C31.9198 317.191 28.2198 314.341 27.2198 313.651C25.4635 312.454 24.0447 310.825 23.0998 308.921C22.0455 306.749 21.6959 304.302 22.0998 301.921C22.3079 300.666 22.6019 299.426 22.9798 298.211C23.3298 297.011 23.6698 295.811 23.9798 294.611C24.4005 293.45 24.5775 292.214 24.4998 290.981C24.1898 288.521 21.9998 286.801 20.0198 285.311C17.8198 283.671 15.5398 281.501 15.5498 278.541C15.7075 276.242 16.6257 274.061 18.1598 272.341C19.5798 270.541 21.2598 268.961 22.5398 267.061C23.5475 265.743 24.0734 264.12 24.0298 262.461C23.8921 261.447 23.552 260.471 23.0298 259.591C22.0298 257.661 20.6098 255.891 19.8898 253.821C19.1698 251.751 19.2698 249.171 20.8898 247.691C22.2098 246.471 24.1898 246.301 25.9798 246.421C27.6624 246.627 29.2799 247.197 30.7198 248.091C35.4198 250.701 38.1098 256.271 43.0998 258.281C45.0666 258.901 47.0706 259.395 49.0998 259.761C51.0998 260.291 53.1498 261.321 54.0998 263.171C55.9298 266.831 52.5298 271.341 53.8198 275.221C54.9598 278.661 58.2998 279.971 60.1698 283.071C60.9342 284.44 61.2424 286.016 61.0498 287.571C60.8866 290.199 60.2426 292.775 59.1498 295.171C57.916 297.658 56.5301 300.065 54.9998 302.381L33.2198 316.451Z" fill="white" stroke="black" stroke-width="2"/>
</g>
<path d="M45.7799 309.091C45.7028 309.089 45.627 309.071 45.557 309.038C45.4869 309.006 45.424 308.96 45.3718 308.904C45.3197 308.847 45.2794 308.78 45.2533 308.708C45.2272 308.635 45.2158 308.558 45.2199 308.481C46.2199 285.241 35.2199 259.571 27.2199 252.121C27.1225 252.011 27.0696 251.869 27.0713 251.723C27.0731 251.576 27.1294 251.435 27.2293 251.328C27.3292 251.22 27.4655 251.154 27.6117 251.142C27.7579 251.129 27.9034 251.172 28.0199 251.261C36.1399 258.871 47.3199 284.961 46.3399 308.531C46.3326 308.677 46.2713 308.816 46.1678 308.919C46.0643 309.023 45.926 309.084 45.7799 309.091Z" fill="white" stroke="black" stroke-width="2"/>
<path d="M42.0002 280.681H41.8302C36.3358 279.16 30.693 278.238 25.0002 277.931C24.9232 277.929 24.8474 277.911 24.7773 277.879C24.7073 277.846 24.6443 277.801 24.5922 277.744C24.5401 277.687 24.4998 277.62 24.4737 277.548C24.4476 277.475 24.4362 277.398 24.4402 277.321C24.4414 277.244 24.4584 277.167 24.4901 277.097C24.5218 277.026 24.5676 276.962 24.6247 276.91C24.6818 276.857 24.749 276.817 24.8222 276.792C24.8953 276.766 24.9729 276.756 25.0502 276.761C30.8566 277.064 36.6133 277.992 42.2202 279.531C42.3669 279.581 42.4885 279.687 42.5593 279.825C42.6302 279.963 42.6448 280.123 42.6002 280.271C42.5603 280.397 42.4796 280.505 42.3709 280.58C42.2621 280.654 42.1317 280.69 42.0002 280.681Z" fill="white" stroke="black" stroke-width="2"/>
<path d="M253.68 485.471C381.253 485.471 484.67 425.764 484.67 352.111C484.67 278.459 381.253 218.751 253.68 218.751C126.108 218.751 22.6904 278.459 22.6904 352.111C22.6904 425.764 126.108 485.471 253.68 485.471Z" fill="#F6F6F6"/>
<path d="M130.92 295.261C179.85 267.021 259.17 267.021 308.09 295.261C349.56 319.201 355.86 355.751 327.03 383.541L434.68 444.901C441.24 448.691 441.24 454.831 434.68 458.621L425 464.211C418.44 468.001 408 467.701 401.64 463.551L307.64 397.811C258.64 425.811 179.72 425.701 130.96 397.551C82.0004 369.301 82.0004 323.511 130.92 295.261Z" fill="#F6F6F6"/>
<path d="M150.75 46.951L142.27 51.851C142.313 51.4791 142.336 51.1053 142.34 50.731V48.271C142.34 43.891 139.27 42.121 135.48 44.271C133.847 45.2676 132.451 46.6088 131.39 48.201C130.76 42.701 126.45 40.651 121.2 43.671C115.53 46.951 110.94 54.911 110.94 61.461V65.131C110.901 66.602 111.198 68.0626 111.81 69.401L104.81 73.471C103.694 74.1946 102.767 75.1732 102.105 76.3261C101.442 77.4789 101.064 78.7729 101 80.101C101 82.531 102.7 83.511 104.81 82.301L150.81 55.741C151.92 55.0213 152.844 54.049 153.506 52.9036C154.169 51.7581 154.55 50.4722 154.62 49.151C154.56 46.721 152.86 45.741 150.75 46.951Z" fill="white" stroke="black" stroke-width="2"/>
<path d="M38.9004 69.0111L43.6804 65.3211V54.7811C43.6804 46.4211 50.3504 36.7211 57.5804 32.5511C64.8204 28.3711 70.6904 31.7611 70.6904 40.1111V41.6411C72.2165 39.169 74.2983 37.0871 76.7704 35.5611C81.9804 32.5611 86.2004 34.9911 86.2004 41.0011V41.7011L92.8704 37.8511C96.3004 35.8511 99.0804 37.4711 99.0804 41.4311C98.964 43.5865 98.341 45.6841 97.262 47.5536C96.1831 49.4232 94.6785 51.012 92.8704 52.1911L38.9004 83.3511C35.4704 85.3511 32.6904 83.7211 32.6904 79.7611C32.8068 77.607 33.4299 75.5108 34.5089 73.6429C35.588 71.775 37.0926 70.188 38.9004 69.0111Z" fill="white" stroke="black" stroke-width="2"/>
<path d="M109.83 313.641V344.071C109.83 360.591 120.75 377.071 142.58 389.721C186.24 414.931 257.04 414.931 300.7 389.721C322.53 377.111 333.45 360.591 333.45 344.071V313.641C333.45 297.121 322.53 280.641 300.7 268.001C257.04 242.791 186.24 242.791 142.58 268.001C120.75 280.601 109.83 297.121 109.83 313.641ZM322.63 313.641C322.63 326.861 312.92 339.741 295.29 349.921C275.79 361.181 249.64 367.381 221.64 367.381C193.64 367.381 167.49 361.181 147.99 349.921C130.36 339.741 120.65 326.861 120.65 313.641C120.65 300.421 130.36 287.541 147.99 277.361C167.49 266.101 193.64 259.901 221.64 259.901C249.64 259.901 275.8 266.101 295.29 277.361C312.93 287.541 322.63 300.451 322.63 313.641Z" fill="white" stroke="black" stroke-width="2"/>
<path opacity="0.2" d="M109.83 313.641V344.071C109.83 360.591 120.75 377.071 142.58 389.721C186.24 414.931 257.04 414.931 300.7 389.721C322.53 377.111 333.45 360.591 333.45 344.071V313.641C333.45 297.121 322.53 280.641 300.7 268.001C257.04 242.791 186.24 242.791 142.58 268.001C120.75 280.601 109.83 297.121 109.83 313.641ZM322.63 313.641C322.63 326.861 312.92 339.741 295.29 349.921C275.79 361.181 249.64 367.381 221.64 367.381C193.64 367.381 167.49 361.181 147.99 349.921C130.36 339.741 120.65 326.861 120.65 313.641C120.65 300.421 130.36 287.541 147.99 277.361C167.49 266.101 193.64 259.901 221.64 259.901C249.64 259.901 275.8 266.101 295.29 277.361C312.93 287.541 322.63 300.451 322.63 313.641Z" fill="white" stroke="black" stroke-width="2"/>
<path opacity="0.6" d="M333.34 346.911C331.6 357.381 326.99 365.261 308.42 379.751C282.17 400.251 215.7 408.621 177.12 395.891C140.73 383.891 129.12 360.401 129.12 344.291L129.22 334.821C123.6 328.131 120.64 320.941 120.64 313.641C120.64 306.161 123.75 298.791 129.64 291.961L129.77 278.621H127.7C115.79 289.251 109.83 301.441 109.83 313.621V344.051C109.83 360.571 120.75 377.051 142.58 389.701C186.24 414.911 257.04 414.911 300.7 389.701C321.28 377.841 332.16 362.451 333.34 346.911Z" fill="white"/>
<path d="M300.711 268.001C257.041 242.791 186.251 242.791 142.591 268.001C98.9305 293.211 98.9205 334.081 142.591 359.291C186.261 384.501 257.041 384.501 300.711 359.291C344.381 334.081 344.371 293.211 300.711 268.001ZM295.301 349.921C275.801 361.181 249.641 367.381 221.651 367.381C193.661 367.381 167.501 361.181 147.991 349.921C130.361 339.741 120.651 326.861 120.651 313.641C120.651 300.421 130.361 287.541 147.991 277.361C167.491 266.101 193.651 259.901 221.651 259.901C249.651 259.901 275.801 266.101 295.301 277.361C312.931 287.541 322.641 300.431 322.641 313.641C322.641 326.851 312.931 339.741 295.301 349.921Z" fill="white" stroke="black" stroke-width="2"/>
<path opacity="0.5" d="M300.711 268.001C257.041 242.791 186.251 242.791 142.591 268.001C98.9305 293.211 98.9205 334.081 142.591 359.291C186.261 384.501 257.041 384.501 300.711 359.291C344.381 334.081 344.371 293.211 300.711 268.001ZM295.301 349.921C275.801 361.181 249.641 367.381 221.651 367.381C193.661 367.381 167.501 361.181 147.991 349.921C130.361 339.741 120.651 326.861 120.651 313.641C120.651 300.421 130.361 287.541 147.991 277.361C167.491 266.101 193.651 259.901 221.651 259.901C249.651 259.901 275.801 266.101 295.301 277.361C312.931 287.541 322.641 300.431 322.641 313.641C322.641 326.851 312.931 339.741 295.301 349.921Z" fill="white" stroke="black" stroke-width="2"/>
<path d="M322.65 313.641C322.586 319.015 321.077 324.272 318.28 328.861C313.85 321.191 306.04 313.991 295.28 307.801C275.8 296.531 249.63 290.331 221.63 290.331C193.63 290.331 167.48 296.531 147.99 307.801C137.24 313.991 129.44 321.191 124.99 328.861C122.216 324.264 120.718 319.01 120.65 313.641C120.65 300.431 130.36 287.541 148 277.351C167.49 266.111 193.65 259.901 221.64 259.901C249.63 259.901 275.81 266.111 295.29 277.351C312.94 287.541 322.65 300.451 322.65 313.641Z" fill="white" stroke="black" stroke-width="2"/>
<path opacity="0.3" d="M322.65 313.641C322.586 319.015 321.077 324.272 318.28 328.861C313.85 321.191 306.04 313.991 295.28 307.801C275.8 296.531 249.63 290.331 221.63 290.331C193.63 290.331 167.48 296.531 147.99 307.801C137.24 313.991 129.44 321.191 124.99 328.861C122.216 324.264 120.718 319.01 120.65 313.641C120.65 300.431 130.36 287.541 148 277.351C167.49 266.111 193.65 259.901 221.64 259.901C249.63 259.901 275.81 266.111 295.29 277.351C312.94 287.541 322.65 300.451 322.65 313.641Z" fill="white" stroke="black" stroke-width="2"/>
<path opacity="0.6" d="M148 277.351C130.36 287.541 120.65 300.431 120.65 313.641C120.721 319.011 122.223 324.265 125 328.861C129.46 321.191 137.26 313.991 148 307.801C152.542 305.204 157.26 302.928 162.12 300.991C157.86 302.641 144.78 306.851 149.55 294.381C155.22 279.571 182.89 263.531 203.22 260.871C182.31 262.941 163.14 268.621 148 277.351Z" fill="white"/>
<path opacity="0.4" d="M295.3 291.141C275.8 279.881 249.64 273.681 221.65 273.681C193.66 273.681 167.49 279.881 147.99 291.141C133.45 299.541 124.31 309.781 121.55 320.531C124.31 331.281 133.45 341.531 147.99 349.921C167.5 361.181 193.65 367.381 221.65 367.381C249.65 367.381 275.8 361.181 295.3 349.921C309.85 341.521 318.99 331.281 321.74 320.531C319 309.781 309.85 299.541 295.3 291.141Z" fill="white"/>
<path d="M140.521 327.511C146.771 332.411 153.861 335.511 161.09 337.971C168.34 340.372 175.766 342.204 183.301 343.451C198.356 345.896 213.625 346.767 228.861 346.051C236.471 345.711 244.091 345.001 251.661 343.981C259.207 342.968 266.684 341.495 274.05 339.571C281.382 337.737 288.473 335.052 295.18 331.571C296.836 330.689 298.439 329.711 299.981 328.641C301.528 327.585 302.996 326.415 304.37 325.141C305.757 323.861 306.995 322.429 308.061 320.871C309.163 319.271 310.004 317.506 310.55 315.641C310.583 317.685 310.244 319.718 309.55 321.641C308.816 323.574 307.856 325.414 306.691 327.121C305.538 328.841 304.225 330.448 302.77 331.921C301.33 333.401 299.797 334.787 298.18 336.071C291.664 341.039 284.441 345.003 276.751 347.831C269.168 350.688 261.348 352.867 253.381 354.341C245.455 355.841 237.436 356.793 229.381 357.191C213.211 358.037 197.01 356.312 181.381 352.081C173.562 349.939 166.011 346.92 158.87 343.081C155.315 341.132 151.935 338.877 148.771 336.341C147.981 335.711 147.24 335.021 146.48 334.341C145.72 333.661 145.001 332.971 144.311 332.241C142.918 330.773 141.65 329.191 140.521 327.511Z" fill="white"/>
<path d="M297.38 378.661C297.514 375.942 298.289 373.293 299.641 370.929C300.993 368.566 302.884 366.555 305.16 365.061C307.3 363.811 309.25 363.681 310.67 364.481L335.59 378.731C337 379.541 337.88 381.291 337.89 383.731C337.753 386.45 336.977 389.098 335.626 391.461C334.274 393.824 332.384 395.835 330.11 397.331C327.95 398.591 325.99 398.721 324.57 397.901L299.66 383.661C298.28 382.921 297.39 381.171 297.38 378.661Z" fill="#979595" stroke="black" stroke-width="2"/>
<path d="M299.71 383.731C298.28 382.921 297.39 381.171 297.38 378.661C297.416 376.637 297.868 374.642 298.71 372.801L334.52 393.321C333.355 394.96 331.872 396.347 330.16 397.401C328 398.661 326.04 398.791 324.62 397.971L299.71 383.731Z" fill="#979595" stroke="black" stroke-width="2"/>
<path d="M420.44 419.261L341.14 378.851L341.04 378.791C339.2 377.791 336.7 377.971 333.95 379.571C328.33 382.851 323.8 390.771 323.83 397.271C323.83 400.531 325 402.811 326.83 403.871L401.36 451.871C403.505 453.229 405.9 454.14 408.405 454.551C410.909 454.963 413.471 454.866 415.936 454.266C418.402 453.666 420.722 452.575 422.758 451.059C424.793 449.543 426.502 447.633 427.783 445.442C429.065 443.252 429.891 440.825 430.215 438.308C430.538 435.791 430.351 433.234 429.664 430.791C428.978 428.348 427.807 426.068 426.22 424.087C424.634 422.106 422.665 420.465 420.43 419.261H420.44Z" fill="white" stroke="black" stroke-width="2"/>
<path d="M326.841 403.891L401.371 451.891C404.141 453.631 407.317 454.62 410.585 454.763C413.853 454.906 417.103 454.197 420.015 452.705C422.927 451.214 425.401 448.992 427.195 446.256C428.99 443.521 430.043 440.366 430.251 437.101C428.821 443.311 418.561 448.591 405.841 441.481C393.121 434.371 346.001 404.581 324.591 392.251C324.088 393.871 323.825 395.555 323.811 397.251C323.821 400.551 325.001 402.831 326.841 403.891Z" fill="#979595" stroke="black" stroke-width="2"/>
<path d="M326.84 403.891C324.98 402.831 323.84 400.551 323.84 397.291C323.84 390.791 328.34 382.871 333.96 379.591C336.71 377.991 339.21 377.821 341.05 378.811L348.05 382.371C346.16 381.371 343.61 381.531 340.78 383.171C335.02 386.531 330.37 394.661 330.4 401.331C330.4 404.671 331.55 407.061 333.45 408.141" fill="white"/>
<path d="M326.84 403.891C324.98 402.831 323.84 400.551 323.84 397.291C323.84 390.791 328.34 382.871 333.96 379.591C336.71 377.991 339.21 377.821 341.05 378.811L348.05 382.371C346.16 381.371 343.61 381.531 340.78 383.171C335.02 386.531 330.37 394.661 330.4 401.331C330.4 404.671 331.55 407.061 333.45 408.141" stroke="black" stroke-width="2"/>
<path opacity="0.2" d="M333.44 408.141C331.54 407.061 330.44 404.671 330.39 401.331C330.401 399.564 330.674 397.808 331.2 396.121C328.81 394.701 326.58 393.401 324.59 392.251C324.338 393.087 324.141 393.939 324 394.801C323.94 395.221 323.89 395.641 323.85 396.061C323.85 396.481 323.8 396.891 323.85 397.291C323.85 400.551 325.02 402.831 326.85 403.891L333.44 408.141Z" fill="white" stroke="black" stroke-width="2"/>
<path d="M137.21 450.211L77.2096 420.201L53.3096 430.781L137.21 450.211Z" fill="white" stroke="black" stroke-width="2"/>
<g opacity="0.15">
<path d="M137.21 450.211L77.2096 420.201L53.3096 430.781L137.21 450.211Z" fill="white" stroke="black" stroke-width="2"/>
</g>
<path d="M137.209 450.211L84.3594 414.881L93.8194 401.281L137.209 450.211Z" fill="white" stroke="black" stroke-width="2"/>
<g opacity="0.15">
<path d="M137.209 450.211L84.3594 414.881L93.8194 401.281L137.209 450.211Z" fill="white" stroke="black" stroke-width="2"/>
</g>
<path d="M84.3594 414.881L85.3494 424.271L137.209 450.211L84.3594 414.881Z" fill="white" stroke="black" stroke-width="2"/>
<g opacity="0.2">
<path d="M84.3594 414.881L85.3494 424.271L137.209 450.211L84.3594 414.881Z" fill="white" stroke="black" stroke-width="2"/>
</g>
<path d="M75.7999 413.081C75.9452 413.078 76.0841 413.021 76.1899 412.921C76.3124 412.801 76.3861 412.639 76.3972 412.468C76.4083 412.296 76.3559 412.127 76.2499 411.991L75.0999 410.451C75.0533 410.386 74.9933 410.332 74.924 410.292C74.8547 410.252 74.7777 410.228 74.6981 410.22C74.6185 410.213 74.5383 410.222 74.4627 410.248C74.3871 410.274 74.318 410.316 74.2599 410.371C74.138 410.492 74.0637 410.652 74.0508 410.823C74.038 410.994 74.0874 411.164 74.1899 411.301C74.5699 411.811 74.9599 412.301 75.3499 412.811C75.399 412.888 75.4652 412.952 75.5433 412.999C75.6213 413.046 75.7092 413.074 75.7999 413.081Z" fill="white" stroke="black" stroke-width="2"/>
<path d="M70.5292 406.261C69.8159 405.221 69.1259 404.171 68.4592 403.111C68.369 402.965 68.3345 402.792 68.3621 402.623C68.3897 402.454 68.4775 402.3 68.6092 402.191C68.6715 402.142 68.7436 402.107 68.8207 402.088C68.8979 402.069 68.9781 402.067 69.0561 402.082C69.134 402.098 69.2077 402.129 69.2721 402.176C69.3365 402.222 69.3901 402.282 69.4292 402.351C70.0992 403.401 70.7792 404.441 71.4292 405.471C71.5272 405.612 71.5691 405.784 71.547 405.954C71.5248 406.124 71.44 406.28 71.3092 406.391C71.2122 406.475 71.0878 406.522 70.9592 406.521C70.8728 406.512 70.7895 406.484 70.7152 406.439C70.6408 406.394 70.5774 406.333 70.5292 406.261ZM65.2392 397.671C64.6292 396.561 64.0292 395.431 63.4592 394.301C63.3809 394.149 63.3611 393.973 63.4034 393.807C63.4458 393.642 63.5475 393.497 63.6892 393.401C63.7581 393.359 63.8352 393.332 63.9155 393.322C63.9957 393.312 64.0771 393.32 64.1541 393.345C64.231 393.369 64.3017 393.41 64.3613 393.465C64.4209 393.52 64.4679 393.587 64.4992 393.661C65.0592 394.771 65.6492 395.881 66.2492 396.981C66.3344 397.13 66.3621 397.304 66.3271 397.472C66.2921 397.64 66.1968 397.789 66.0592 397.891C65.9659 397.948 65.8588 397.979 65.7492 397.981C65.6443 397.979 65.5418 397.95 65.4521 397.895C65.3625 397.841 65.289 397.763 65.2392 397.671ZM60.7792 388.511C60.2792 387.321 59.7792 386.121 59.3592 384.931C59.2979 384.773 59.2966 384.599 59.3556 384.44C59.4146 384.282 59.5297 384.15 59.6792 384.071C59.7537 384.039 59.834 384.024 59.9149 384.025C59.9958 384.026 60.0755 384.044 60.149 384.078C60.2224 384.112 60.288 384.161 60.3414 384.222C60.3949 384.283 60.435 384.354 60.4592 384.431C60.8892 385.601 61.3592 386.781 61.8592 387.951C61.9265 388.108 61.9341 388.284 61.8807 388.446C61.8273 388.608 61.7165 388.745 61.5692 388.831C61.4916 388.87 61.4061 388.89 61.3192 388.891C61.2019 388.887 61.0882 388.85 60.9923 388.782C60.8963 388.714 60.8222 388.62 60.7792 388.511ZM57.3192 378.831C56.9592 377.581 56.6192 376.311 56.3192 375.081C56.2715 374.918 56.2885 374.743 56.3667 374.592C56.445 374.441 56.5784 374.326 56.7392 374.271C56.8175 374.25 56.8992 374.246 56.9791 374.258C57.0591 374.271 57.1357 374.299 57.2042 374.342C57.2727 374.386 57.3315 374.442 57.3771 374.509C57.4227 374.576 57.4541 374.652 57.4692 374.731C57.7592 375.951 58.0892 377.191 58.4692 378.421C58.5201 378.582 58.5094 378.756 58.4392 378.909C58.369 379.063 58.2443 379.184 58.0892 379.251H57.9092C57.7789 379.253 57.6513 379.214 57.5452 379.138C57.439 379.063 57.3598 378.955 57.3192 378.831ZM54.9992 368.721C54.7992 367.451 54.6192 366.151 54.4692 364.861C54.44 364.695 54.4771 364.525 54.5725 364.386C54.6679 364.248 54.814 364.153 54.9792 364.121C55.1432 364.11 55.305 364.163 55.4302 364.27C55.5554 364.376 55.634 364.527 55.6492 364.691C55.7892 365.961 55.9692 367.241 56.1692 368.491C56.2029 368.654 56.173 368.823 56.0855 368.965C55.9981 369.106 55.8599 369.208 55.6992 369.251H55.5892C55.4451 369.244 55.3078 369.187 55.2004 369.091C55.093 368.994 55.022 368.864 54.9992 368.721ZM53.9992 358.361C53.9992 357.361 53.9392 356.361 53.9392 355.291V354.451C53.9352 354.37 53.9473 354.288 53.9748 354.211C54.0022 354.135 54.0446 354.064 54.0994 354.004C54.1542 353.943 54.2204 353.894 54.2941 353.86C54.3679 353.825 54.4478 353.805 54.5292 353.801C54.6947 353.814 54.8484 353.891 54.9569 354.017C55.0655 354.142 55.1203 354.305 55.1092 354.471V355.291C55.1092 356.291 55.1092 357.291 55.1092 358.291C55.1232 358.458 55.0714 358.623 54.9649 358.752C54.8584 358.881 54.7056 358.963 54.5392 358.981C54.389 358.962 54.2512 358.888 54.1517 358.773C54.0522 358.659 53.998 358.513 53.9992 358.361ZM54.7892 348.671C54.6256 348.642 54.4794 348.551 54.3808 348.417C54.2822 348.283 54.2387 348.116 54.2592 347.951C54.3692 346.661 54.5092 345.351 54.6692 344.061C54.6753 343.979 54.698 343.9 54.7361 343.827C54.7741 343.755 54.8266 343.691 54.8903 343.639C54.954 343.587 55.0276 343.549 55.1065 343.527C55.1854 343.505 55.2681 343.5 55.3492 343.511C55.5126 343.545 55.6563 343.641 55.7496 343.779C55.843 343.918 55.8788 344.087 55.8492 344.251C55.6892 345.521 55.5492 346.811 55.4392 348.071C55.4321 348.226 55.368 348.373 55.2591 348.484C55.1502 348.595 55.0042 348.661 54.8492 348.671H54.7892ZM56.1892 338.451C56.0291 338.4 55.8944 338.29 55.8127 338.143C55.7309 337.996 55.7082 337.824 55.7492 337.661C56.0092 336.391 56.3092 335.121 56.6392 333.871C56.6542 333.792 56.6855 333.716 56.7313 333.65C56.777 333.583 56.8361 333.527 56.9048 333.485C56.9736 333.442 57.0503 333.415 57.1303 333.404C57.2103 333.393 57.2917 333.399 57.3692 333.421C57.5275 333.482 57.6574 333.6 57.7332 333.752C57.8091 333.903 57.8255 334.078 57.7792 334.241C57.4592 335.461 57.1592 336.721 56.8992 337.961C56.8784 338.099 56.8101 338.226 56.706 338.319C56.602 338.412 56.4687 338.466 56.3292 338.471L56.1892 338.451ZM58.8892 328.561C58.7371 328.487 58.6185 328.358 58.5573 328.201C58.4961 328.043 58.4968 327.868 58.5592 327.711C58.9892 326.511 59.4692 325.301 59.9692 324.121C59.9975 324.046 60.0409 323.978 60.0969 323.921C60.1528 323.863 60.22 323.818 60.2942 323.788C60.3684 323.758 60.448 323.744 60.5281 323.746C60.6081 323.748 60.6868 323.767 60.7592 323.801C60.9049 323.889 61.0144 324.026 61.0676 324.187C61.1208 324.349 61.1143 324.524 61.0492 324.681C60.5492 325.841 60.0492 327.021 59.6592 328.201C59.6217 328.318 59.5486 328.421 59.4499 328.494C59.3513 328.568 59.2322 328.609 59.1092 328.611C59.0328 328.614 58.957 328.597 58.8892 328.561ZM62.9992 319.271C62.8584 319.172 62.759 319.024 62.7203 318.856C62.6815 318.688 62.7061 318.512 62.7892 318.361C63.3992 317.251 64.0392 316.141 64.6892 315.071C64.7277 315 64.7809 314.938 64.8454 314.89C64.9099 314.842 64.9841 314.808 65.0629 314.791C65.1417 314.773 65.2233 314.774 65.3021 314.791C65.3808 314.808 65.4549 314.842 65.5192 314.891C65.6509 315 65.7393 315.153 65.7686 315.322C65.7979 315.49 65.7662 315.664 65.6792 315.811C65.0292 316.861 64.3992 317.951 63.8092 319.041C63.7617 319.136 63.6889 319.216 63.599 319.272C63.5091 319.329 63.4054 319.359 63.2992 319.361C63.1926 319.361 63.0884 319.329 62.9992 319.271ZM68.3092 310.781C68.188 310.662 68.1141 310.503 68.1012 310.334C68.0883 310.165 68.1374 309.997 68.2392 309.861C68.9892 308.861 69.7792 307.861 70.5692 306.921C70.6209 306.86 70.6852 306.811 70.7577 306.777C70.8303 306.744 70.9093 306.726 70.9892 306.726C71.0692 306.726 71.1482 306.744 71.2207 306.777C71.2933 306.811 71.3576 306.86 71.4092 306.921C71.5231 307.049 71.586 307.215 71.586 307.386C71.586 307.557 71.5231 307.723 71.4092 307.851C70.6292 308.781 69.8592 309.741 69.1192 310.731C69.067 310.805 68.9981 310.865 68.9181 310.906C68.8382 310.948 68.7494 310.97 68.6592 310.971C68.5829 310.969 68.5078 310.952 68.4389 310.919C68.3699 310.886 68.3087 310.839 68.2592 310.781H68.3092ZM74.7392 303.301C74.6254 303.173 74.5625 303.007 74.5625 302.836C74.5625 302.665 74.6254 302.499 74.7392 302.371C75.6192 301.501 76.5292 300.651 77.4392 299.851C77.4993 299.798 77.5701 299.758 77.6469 299.734C77.7237 299.71 77.8047 299.704 77.8844 299.714C77.9641 299.724 78.0406 299.752 78.1087 299.795C78.1768 299.837 78.235 299.894 78.2792 299.961C78.376 300.103 78.4192 300.274 78.4008 300.444C78.3825 300.615 78.3039 300.773 78.1792 300.891C77.2792 301.671 76.3892 302.501 75.5192 303.351C75.4167 303.457 75.2765 303.518 75.1292 303.521C75.0441 303.52 74.9604 303.499 74.8843 303.461C74.8081 303.423 74.7415 303.368 74.6892 303.301H74.7392ZM82.0992 296.971C82.0172 296.822 81.9902 296.65 82.0232 296.483C82.0561 296.317 82.1468 296.167 82.2792 296.061C83.2792 295.341 84.2792 294.671 85.2792 294.061C85.3477 294.02 85.424 293.995 85.5032 293.986C85.5823 293.977 85.6623 293.985 85.738 294.01C85.8137 294.035 85.8833 294.075 85.9422 294.129C86.001 294.182 86.0477 294.248 86.0792 294.321C86.1569 294.472 86.1764 294.646 86.134 294.81C86.0916 294.974 85.9902 295.117 85.8492 295.211C84.8492 295.811 83.8492 296.471 82.8492 297.211C82.7556 297.277 82.6437 297.312 82.5292 297.311C82.4271 297.299 82.3295 297.262 82.2455 297.203C82.1616 297.143 82.0941 297.064 82.0492 296.971H82.0992Z" fill="white" stroke="black" stroke-width="2"/>
<path d="M90.8997 292.651H91.0797C91.608 292.451 92.1536 292.3 92.7097 292.201C92.8739 292.165 93.0176 292.067 93.1109 291.927C93.2041 291.787 93.2395 291.616 93.2097 291.451C93.2035 291.37 93.1811 291.291 93.1438 291.219C93.1065 291.146 93.0552 291.082 92.9927 291.03C92.9303 290.978 92.8581 290.939 92.7803 290.915C92.7025 290.891 92.6207 290.883 92.5397 290.891C91.9202 291.007 91.3115 291.174 90.7197 291.391C90.5614 291.454 90.4329 291.575 90.3605 291.729C90.288 291.883 90.277 292.059 90.3297 292.221C90.3675 292.344 90.4429 292.451 90.5452 292.528C90.6476 292.605 90.7716 292.648 90.8997 292.651Z" fill="white" stroke="black" stroke-width="2"/>
<path d="M371.699 62.6012L310.199 43.7512L357.579 76.3012L371.699 62.6012Z" fill="white" stroke="black" stroke-width="2"/>
<path opacity="0.15" d="M371.699 62.6012L310.199 43.7512L357.579 76.3012L371.699 62.6012Z" fill="white" stroke="black" stroke-width="2"/>
<path d="M310.199 43.7512L376.389 54.4012L390.509 40.7012L310.199 43.7512Z" fill="white" stroke="black" stroke-width="2"/>
<path opacity="0.15" d="M310.199 43.7512L376.389 54.4012L390.509 40.7012L310.199 43.7512Z" fill="white" stroke="black" stroke-width="2"/>
<path d="M376.389 54.4012L376.449 70.7612L371.699 62.6012L310.199 43.7512L376.389 54.4012Z" fill="white" stroke="black" stroke-width="2"/>
<path opacity="0.2" d="M376.389 54.4012L376.449 70.7612L371.699 62.6012L310.199 43.7512L376.389 54.4012Z" fill="white" stroke="black" stroke-width="2"/>
<path d="M376.449 70.7611L366.989 67.1711L371.699 62.6011L376.449 70.7611Z" fill="white" stroke="black" stroke-width="2"/>
<path opacity="0.2" d="M371.699 62.6011L366.989 67.1711L368.499 67.7411L371.699 62.6011Z" fill="white" stroke="black" stroke-width="2"/>
<path d="M388.859 59.7212C388.801 59.7639 388.753 59.8178 388.717 59.8797C388.681 59.9416 388.658 60.0101 388.649 60.0812C388.628 60.2519 388.669 60.4244 388.764 60.5674C388.86 60.7105 389.003 60.8147 389.169 60.8612L390.989 61.3512C391.065 61.3752 391.146 61.3823 391.225 61.3719C391.305 61.3615 391.381 61.334 391.448 61.2911C391.516 61.2483 391.573 61.1912 391.617 61.1238C391.66 61.0565 391.688 60.9805 391.699 60.9012C391.723 60.7329 391.685 60.5615 391.594 60.4184C391.502 60.2753 391.362 60.1698 391.199 60.1212L389.359 59.6312C389.274 59.6065 389.185 59.6018 389.098 59.6174C389.011 59.633 388.93 59.6686 388.859 59.7212Z" fill="white" stroke="black" stroke-width="2"/>
<path d="M397.189 61.9513C398.379 62.3513 399.569 62.7713 400.739 63.2013C400.9 63.262 401.033 63.3779 401.115 63.5282C401.198 63.6786 401.224 63.8534 401.189 64.0213C401.168 64.0986 401.131 64.1707 401.08 64.2325C401.029 64.2942 400.966 64.3444 400.894 64.3794C400.821 64.4145 400.743 64.4337 400.663 64.4358C400.583 64.4378 400.503 64.4226 400.429 64.3913C399.269 63.9613 398.089 63.5513 396.909 63.1513C396.749 63.0964 396.613 62.985 396.529 62.8378C396.444 62.6906 396.416 62.5177 396.449 62.3513C396.473 62.223 396.544 62.1084 396.649 62.0313C396.725 61.9738 396.815 61.9364 396.909 61.9224C397.003 61.9084 397.1 61.9184 397.189 61.9513ZM406.599 65.5713C407.769 66.0913 408.919 66.5713 410.059 67.1813C410.214 67.2535 410.336 67.3803 410.402 67.5372C410.469 67.6941 410.475 67.8701 410.419 68.0313C410.389 68.1059 410.344 68.1733 410.286 68.2292C410.229 68.2851 410.16 68.3282 410.084 68.3555C410.009 68.3829 409.928 68.394 409.848 68.3881C409.768 68.3822 409.69 68.3594 409.619 68.3213C408.499 67.7713 407.359 67.2413 406.209 66.7413C406.054 66.6711 405.93 66.5477 405.858 66.3936C405.787 66.2395 405.773 66.0648 405.819 65.9013C405.852 65.7933 405.919 65.6987 406.009 65.6313C406.093 65.5691 406.192 65.5307 406.296 65.5202C406.4 65.5096 406.505 65.5273 406.599 65.5713ZM415.699 70.1613C416.819 70.8013 417.919 71.4713 418.999 72.1613C419.143 72.2505 419.25 72.3889 419.299 72.5506C419.349 72.7124 419.338 72.8867 419.269 73.0413C419.229 73.112 419.175 73.1737 419.11 73.2222C419.045 73.2708 418.971 73.3051 418.891 73.323C418.812 73.3409 418.73 73.342 418.651 73.3262C418.571 73.3104 418.496 73.278 418.429 73.2313C417.369 72.5613 416.279 71.9113 415.179 71.2313C415.031 71.1486 414.918 71.0141 414.863 70.8536C414.808 70.6931 414.813 70.5178 414.879 70.3613C414.912 70.2779 414.968 70.2053 415.039 70.1513C415.138 70.0882 415.253 70.0556 415.371 70.0574C415.488 70.0591 415.602 70.0953 415.699 70.1613ZM424.319 75.7713C425.369 76.5413 426.399 77.3413 427.389 78.1413C427.523 78.2446 427.613 78.3948 427.641 78.5618C427.669 78.7287 427.633 78.9 427.539 79.0413C427.49 79.106 427.428 79.1597 427.356 79.1987C427.285 79.2378 427.206 79.2614 427.125 79.268C427.044 79.2746 426.962 79.264 426.885 79.237C426.809 79.21 426.738 79.1672 426.679 79.1113C425.679 78.3213 424.679 77.5413 423.679 76.7813C423.539 76.6838 423.44 76.5371 423.403 76.3703C423.366 76.2036 423.393 76.029 423.479 75.8813C423.508 75.8289 423.549 75.7843 423.599 75.7513C423.706 75.6792 423.833 75.6424 423.962 75.646C424.091 75.6496 424.216 75.6934 424.319 75.7713ZM432.269 82.4513C433.209 83.3413 434.139 84.2613 435.039 85.2013C435.155 85.3223 435.22 85.4835 435.22 85.6513C435.22 85.819 435.155 85.9802 435.039 86.1013C434.982 86.1593 434.913 86.2054 434.838 86.2368C434.762 86.2683 434.681 86.2845 434.599 86.2845C434.517 86.2845 434.436 86.2683 434.361 86.2368C434.285 86.2054 434.217 86.1593 434.159 86.1013C433.279 85.1813 432.359 84.2713 431.439 83.4013C431.314 83.2895 431.236 83.1343 431.221 82.9671C431.206 82.7999 431.256 82.6333 431.359 82.5013L431.439 82.4213C431.557 82.3227 431.707 82.2712 431.86 82.2767C432.013 82.2823 432.159 82.3445 432.269 82.4513ZM439.359 90.0713C440.009 90.8613 440.639 91.6613 441.269 92.4813L441.769 93.1513C441.874 93.2791 441.924 93.443 441.909 93.6076C441.894 93.7723 441.815 93.9244 441.689 94.0313C441.621 94.0781 441.545 94.1109 441.464 94.1278C441.383 94.1446 441.299 94.1451 441.218 94.1293C441.137 94.1134 441.06 94.0816 440.992 94.0355C440.923 93.9895 440.865 93.9303 440.819 93.8613L440.319 93.2013C439.709 92.4013 439.089 91.6113 438.449 90.8313C438.334 90.7119 438.269 90.5523 438.269 90.3863C438.269 90.2202 438.334 90.0606 438.449 89.9413C438.513 89.8839 438.589 89.8404 438.67 89.8137C438.752 89.787 438.838 89.7775 438.924 89.786C439.01 89.7945 439.092 89.8206 439.167 89.8629C439.242 89.9051 439.308 89.9624 439.359 90.0313V90.0713ZM444.609 98.2713C444.756 98.1939 444.927 98.1756 445.087 98.2202C445.247 98.2649 445.384 98.369 445.469 98.5113C446.159 99.6113 446.839 100.731 447.469 101.861C447.513 101.93 447.542 102.007 447.556 102.087C447.57 102.167 447.567 102.249 447.548 102.328C447.53 102.408 447.495 102.482 447.447 102.548C447.4 102.614 447.339 102.669 447.269 102.711C447.117 102.779 446.945 102.787 446.787 102.733C446.63 102.679 446.498 102.568 446.419 102.421C445.779 101.311 445.109 100.201 444.419 99.1313C444.33 99.0042 444.293 98.8485 444.313 98.6949C444.333 98.5413 444.41 98.4008 444.529 98.3013L444.609 98.2713ZM449.679 107.271C449.839 107.214 450.014 107.219 450.17 107.286C450.326 107.353 450.451 107.476 450.519 107.631C451.069 108.801 451.609 109.991 452.099 111.181C452.134 111.255 452.153 111.334 452.156 111.415C452.16 111.496 452.146 111.577 452.117 111.653C452.088 111.728 452.044 111.797 451.988 111.855C451.932 111.914 451.864 111.96 451.789 111.991C451.626 112.038 451.451 112.021 451.3 111.945C451.148 111.869 451.03 111.74 450.969 111.581C450.489 110.411 449.969 109.241 449.419 108.101C449.35 107.977 449.328 107.833 449.355 107.694C449.383 107.555 449.458 107.43 449.569 107.341C449.595 107.287 449.633 107.239 449.679 107.201V107.271ZM453.529 116.771C453.696 116.74 453.868 116.771 454.012 116.86C454.156 116.949 454.262 117.088 454.309 117.251C454.689 118.471 455.049 119.721 455.359 120.961C455.383 121.038 455.391 121.119 455.381 121.199C455.371 121.279 455.345 121.356 455.303 121.425C455.262 121.494 455.206 121.553 455.14 121.599C455.074 121.645 454.998 121.677 454.919 121.691C454.752 121.713 454.583 121.672 454.444 121.576C454.305 121.48 454.207 121.336 454.169 121.171C453.859 119.951 453.509 118.721 453.169 117.531C453.127 117.416 453.122 117.291 453.154 117.173C453.186 117.054 453.254 116.949 453.349 116.871C453.394 116.801 453.456 116.742 453.529 116.701V116.771ZM455.929 126.621C456.1 126.617 456.267 126.676 456.398 126.786C456.529 126.897 456.615 127.052 456.639 127.221C456.839 128.471 456.999 129.741 457.129 131.001C457.139 131.08 457.132 131.159 457.109 131.235C457.086 131.31 457.047 131.38 456.995 131.44C456.944 131.499 456.88 131.547 456.808 131.58C456.736 131.613 456.658 131.63 456.579 131.631C456.408 131.629 456.243 131.564 456.118 131.447C455.992 131.331 455.914 131.172 455.899 131.001C455.769 129.771 455.619 128.531 455.419 127.301C455.401 127.198 455.411 127.091 455.448 126.993C455.485 126.894 455.547 126.807 455.629 126.741C455.706 126.647 455.811 126.58 455.929 126.551V126.621Z" fill="white" stroke="black" stroke-width="2"/>
<path d="M466.88 286.281C464.2 284.681 460.42 284.901 456.22 287.281L380.06 331.281C371.93 335.971 365.33 347.131 365.33 356.201C365.33 360.631 366.91 363.731 369.47 365.201L377.64 369.911C380.31 371.431 384.04 371.191 388.18 368.801L464.35 324.801C472.48 320.111 479.07 308.951 479.07 299.881C479.07 295.481 477.51 292.371 474.97 290.881C473.58 290.121 468.22 287.081 466.88 286.281Z" fill="white" stroke="black" stroke-width="2"/>
<path d="M381.42 370.451C376.82 370.451 373.96 366.811 373.96 360.961C373.96 352.071 380.45 341.081 388.43 336.481L464.6 292.481C466.561 291.265 468.804 290.576 471.11 290.481C475.71 290.481 478.57 294.121 478.57 299.971C478.57 308.871 472.08 319.851 464.1 324.461L387.93 368.461C385.97 369.679 383.726 370.365 381.42 370.451Z" fill="white" stroke="black" stroke-width="2"/>
<path d="M471.11 290.941C475.4 290.941 478.11 294.391 478.11 299.941C478.11 308.681 471.73 319.471 463.89 323.941L387.72 367.941C385.836 369.117 383.679 369.786 381.46 369.881C380.51 369.913 379.565 369.727 378.699 369.337C377.832 368.947 377.066 368.363 376.46 367.631C375.039 365.681 374.333 363.301 374.46 360.891C374.46 352.161 380.84 341.371 388.68 336.891L464.85 292.891C466.734 291.715 468.891 291.047 471.11 290.951M471.11 289.951C468.714 290.042 466.383 290.759 464.35 292.031L388.18 336.031C380.05 340.731 373.46 351.881 373.46 360.951C373.46 367.301 376.69 370.951 381.46 370.951C383.855 370.858 386.184 370.145 388.22 368.881L464.39 324.881C472.52 320.191 479.11 309.031 479.11 299.961C479.11 293.611 475.88 289.961 471.11 289.961V289.951Z" fill="white"/>
<path d="M471.11 290.941C475.4 290.941 478.11 294.391 478.11 299.941C478.11 308.681 471.73 319.471 463.89 323.941L387.72 367.941C385.836 369.117 383.679 369.786 381.46 369.881C380.51 369.913 379.565 369.727 378.699 369.337C377.832 368.947 377.066 368.363 376.46 367.631C375.039 365.681 374.333 363.301 374.46 360.891C374.46 352.161 380.84 341.371 388.68 336.891L464.85 292.891C466.734 291.715 468.891 291.047 471.11 290.951M471.11 289.951C468.714 290.042 466.383 290.759 464.35 292.031L388.18 336.031C380.05 340.731 373.46 351.881 373.46 360.951C373.46 367.301 376.69 370.951 381.46 370.951C383.855 370.858 386.184 370.145 388.22 368.881L464.39 324.881C472.52 320.191 479.11 309.031 479.11 299.961C479.11 293.611 475.88 289.961 471.11 289.961V289.951Z" stroke="black" stroke-width="2"/>
<path d="M400.119 345.811C400.429 345.231 400.379 344.631 400.119 344.471L397.569 343.001C397.515 342.973 397.455 342.958 397.394 342.958C397.333 342.958 397.273 342.973 397.219 343.001L394.879 343.901L394.109 342.261C394.071 342.18 394.008 342.114 393.929 342.071L391.379 340.591C391.059 340.411 390.529 340.821 390.319 341.501L388.729 346.711C388.643 347.025 388.461 347.304 388.209 347.511L384.659 350.261C384.089 350.691 383.869 351.751 384.279 352.041L386.849 353.901C386.938 353.992 387.002 354.104 387.037 354.226C387.072 354.348 387.076 354.477 387.049 354.601L386.439 359.671C386.389 360.041 386.499 360.291 386.669 360.381L389.219 361.861C389.419 361.971 389.719 361.861 389.989 361.531L393.169 357.471C393.236 357.36 393.329 357.268 393.441 357.203C393.553 357.138 393.68 357.103 393.809 357.101L396.999 357.451C397.499 357.521 398.089 356.601 397.999 355.911L397.389 351.541C397.361 351.218 397.431 350.894 397.589 350.611L400.119 345.811Z" fill="#3D30F2" stroke="black" stroke-width="2"/>
<path opacity="0.15" d="M400.09 344.451C400.035 344.426 399.975 344.413 399.915 344.413C399.854 344.413 399.795 344.426 399.74 344.451L396.18 345.811C396.133 345.834 396.083 345.847 396.031 345.849C395.98 345.851 395.928 345.843 395.88 345.824C395.832 345.805 395.789 345.776 395.752 345.74C395.716 345.703 395.688 345.659 395.67 345.611L394.85 343.871L397.19 342.981C397.244 342.954 397.304 342.939 397.365 342.939C397.425 342.939 397.485 342.954 397.54 342.981L400.09 344.451Z" fill="white" stroke="black" stroke-width="2"/>
<path opacity="0.15" d="M391.25 348.171C391.161 348.484 390.98 348.763 390.73 348.971L387.18 351.711C387.017 351.838 386.886 352.003 386.8 352.191L384.25 350.711C384.342 350.526 384.471 350.363 384.63 350.231L388.18 347.491C388.429 347.287 388.611 347.011 388.7 346.701L391.25 348.171Z" fill="white" stroke="black" stroke-width="2"/>
<path opacity="0.1" d="M393.92 342.061C393.6 341.851 393.06 342.261 392.84 342.961L391.25 348.171L388.7 346.691L390.29 341.481C390.5 340.801 391.03 340.391 391.35 340.571C391.42 340.571 393.58 341.871 393.91 342.051L393.92 342.061Z" fill="white" stroke="black" stroke-width="2"/>
<path opacity="0.25" d="M389.37 355.361L386.84 353.901L384.27 352.041C383.97 351.821 384.01 351.221 384.27 350.731L386.82 352.211C386.56 352.691 386.52 353.301 386.82 353.521L389.37 355.361Z" fill="white" stroke="black" stroke-width="2"/>
<path opacity="0.15" d="M389 361.131C389 361.501 389.06 361.751 389.25 361.851L386.69 360.371C386.589 360.286 386.515 360.174 386.476 360.048C386.437 359.922 386.435 359.788 386.47 359.661L387.08 354.591C387.105 354.472 387.102 354.348 387.071 354.23C387.04 354.112 386.981 354.002 386.9 353.911L389.43 355.371C389.512 355.46 389.571 355.567 389.602 355.684C389.633 355.801 389.636 355.923 389.61 356.041L389 361.131Z" fill="white" stroke="black" stroke-width="2"/>
<path d="M394.079 342.241L395.669 345.621C395.688 345.669 395.716 345.713 395.752 345.75C395.789 345.786 395.832 345.815 395.88 345.834C395.928 345.853 395.98 345.861 396.031 345.859C396.083 345.857 396.133 345.844 396.179 345.821L399.739 344.461C400.299 344.241 400.529 345.041 400.119 345.811L397.549 350.631C397.391 350.914 397.322 351.238 397.349 351.561L397.959 355.931C398.049 356.621 397.459 357.541 396.959 357.471L393.779 357.081C393.65 357.083 393.523 357.118 393.411 357.183C393.299 357.248 393.206 357.34 393.139 357.451L389.999 361.511C389.489 362.161 388.899 361.931 388.999 361.121L389.609 356.051C389.638 355.927 389.635 355.798 389.6 355.675C389.565 355.553 389.499 355.441 389.409 355.351L386.839 353.501C386.429 353.201 386.659 352.151 387.219 351.711L390.769 348.971C391.021 348.764 391.203 348.485 391.289 348.171L392.879 342.961C393.089 342.131 393.819 341.711 394.079 342.241Z" fill="#3D30F2" stroke="black" stroke-width="2"/>
<path opacity="0.5" d="M394.079 342.241L395.669 345.621C395.688 345.669 395.716 345.713 395.752 345.75C395.789 345.786 395.832 345.815 395.88 345.834C395.928 345.853 395.98 345.861 396.031 345.859C396.083 345.857 396.133 345.844 396.179 345.821L399.739 344.461C400.299 344.241 400.529 345.041 400.119 345.811L397.549 350.631C397.391 350.914 397.322 351.238 397.349 351.561L397.959 355.931C398.049 356.621 397.459 357.541 396.959 357.471L393.779 357.081C393.65 357.083 393.523 357.118 393.411 357.183C393.299 357.248 393.206 357.34 393.139 357.451L389.999 361.511C389.489 362.161 388.899 361.931 388.999 361.121L389.609 356.051C389.638 355.927 389.635 355.798 389.6 355.675C389.565 355.553 389.499 355.441 389.409 355.351L386.839 353.501C386.429 353.201 386.659 352.151 387.219 351.711L390.769 348.971C391.021 348.764 391.203 348.485 391.289 348.171L392.879 342.961C393.089 342.131 393.819 341.711 394.079 342.241Z" fill="white" stroke="black" stroke-width="2"/>
<path d="M417.999 335.511C418.309 334.931 418.249 334.341 417.999 334.181L415.459 332.711C415.404 332.683 415.342 332.668 415.279 332.668C415.217 332.668 415.155 332.683 415.099 332.711L412.769 333.611L411.989 331.971C411.958 331.889 411.897 331.822 411.819 331.781L409.269 330.301C408.949 330.121 408.419 330.531 408.209 331.211L406.549 336.451C406.459 336.763 406.278 337.042 406.029 337.251L402.479 339.991C401.909 340.431 401.689 341.491 402.089 341.781L404.669 343.641C404.758 343.732 404.821 343.844 404.855 343.967C404.888 344.089 404.89 344.218 404.859 344.341L404.259 349.411C404.209 349.781 404.309 350.031 404.479 350.121L406.999 351.551C407.199 351.661 407.489 351.551 407.769 351.221L410.949 347.161C411.016 347.05 411.109 346.958 411.221 346.893C411.333 346.828 411.46 346.793 411.589 346.791L414.769 347.181C415.269 347.241 415.859 346.331 415.769 345.641L415.169 341.271C415.137 340.948 415.207 340.623 415.369 340.341L417.999 335.511Z" fill="#3D30F2" stroke="black" stroke-width="2"/>
<path opacity="0.15" d="M417.94 334.171C417.885 334.147 417.825 334.134 417.765 334.134C417.705 334.134 417.645 334.147 417.59 334.171L414 335.531C413.953 335.554 413.902 335.567 413.849 335.569C413.797 335.572 413.745 335.563 413.696 335.544C413.647 335.526 413.603 335.497 413.566 335.46C413.529 335.424 413.499 335.38 413.48 335.331L412.67 333.591L415 332.701C415.056 332.674 415.118 332.659 415.18 332.659C415.242 332.659 415.304 332.674 415.36 332.701L417.94 334.171Z" fill="white" stroke="black" stroke-width="2"/>
<path opacity="0.15" d="M409.1 337.881C409.011 338.194 408.83 338.473 408.58 338.681L405 341.451C404.836 341.578 404.706 341.743 404.62 341.931L402.09 340.451C402.188 340.268 402.321 340.105 402.48 339.971L406.03 337.231C406.278 337.022 406.459 336.743 406.55 336.431L409.1 337.881Z" fill="white" stroke="black" stroke-width="2"/>
<path opacity="0.1" d="M411.77 331.771C411.45 331.561 410.91 331.971 410.69 332.671L409.1 337.881L406.55 336.451L408.14 331.241C408.35 330.561 408.88 330.151 409.2 330.331C409.27 330.331 411.43 331.631 411.75 331.801L411.77 331.771Z" fill="white" stroke="black" stroke-width="2"/>
<path opacity="0.25" d="M407.22 345.061L404.69 343.611L402.12 341.751C401.83 341.531 401.87 340.931 402.12 340.441L404.68 341.921C404.42 342.401 404.38 343.011 404.68 343.221L407.22 345.061Z" fill="white" stroke="black" stroke-width="2"/>
<path opacity="0.15" d="M406.809 350.831C406.759 351.211 406.869 351.461 407.049 351.561L404.5 350.081C404.33 349.981 404.229 349.741 404.279 349.371L404.89 344.301C404.913 344.182 404.908 344.058 404.877 343.941C404.846 343.823 404.789 343.714 404.709 343.621L407.239 345.071C407.321 345.16 407.38 345.267 407.412 345.384C407.443 345.501 407.446 345.623 407.42 345.741L406.809 350.831Z" fill="white" stroke="black" stroke-width="2"/>
<path d="M411.92 331.951L413.51 335.331C413.529 335.38 413.558 335.424 413.596 335.46C413.633 335.497 413.677 335.526 413.726 335.545C413.775 335.563 413.827 335.572 413.879 335.57C413.932 335.567 413.983 335.554 414.03 335.531L417.59 334.171C418.15 333.951 418.38 334.751 417.97 335.511L415.4 340.341C415.237 340.623 415.167 340.948 415.2 341.271L415.8 345.641C415.9 346.331 415.31 347.241 414.8 347.181L411.62 346.791C411.49 346.793 411.364 346.828 411.252 346.893C411.14 346.958 411.046 347.05 410.98 347.161L407.8 351.221C407.29 351.871 406.7 351.641 406.8 350.831L407.41 345.761C407.437 345.637 407.433 345.508 407.398 345.386C407.363 345.264 407.298 345.152 407.21 345.061L404.64 343.211C404.23 342.911 404.45 341.861 405.02 341.421L408.57 338.681C408.821 338.474 409.003 338.195 409.09 337.881L410.68 332.671C410.94 331.841 411.67 331.451 411.92 331.951Z" fill="#3D30F2" stroke="black" stroke-width="2"/>
<path opacity="0.5" d="M411.92 331.951L413.51 335.331C413.529 335.38 413.558 335.424 413.596 335.46C413.633 335.497 413.677 335.526 413.726 335.545C413.775 335.563 413.827 335.572 413.879 335.57C413.932 335.567 413.983 335.554 414.03 335.531L417.59 334.171C418.15 333.951 418.38 334.751 417.97 335.511L415.4 340.341C415.237 340.623 415.167 340.948 415.2 341.271L415.8 345.641C415.9 346.331 415.31 347.241 414.8 347.181L411.62 346.791C411.49 346.793 411.364 346.828 411.252 346.893C411.14 346.958 411.046 347.05 410.98 347.161L407.8 351.221C407.29 351.871 406.7 351.641 406.8 350.831L407.41 345.761C407.437 345.637 407.433 345.508 407.398 345.386C407.363 345.264 407.298 345.152 407.21 345.061L404.64 343.211C404.23 342.911 404.45 341.861 405.02 341.421L408.57 338.681C408.821 338.474 409.003 338.195 409.09 337.881L410.68 332.671C410.94 331.841 411.67 331.451 411.92 331.951Z" fill="white" stroke="black" stroke-width="2"/>
<path d="M435.82 325.221C436.12 324.641 436.07 324.051 435.82 323.891L433.24 322.451C433.183 322.426 433.122 322.412 433.06 322.412C432.998 322.412 432.937 322.426 432.88 322.451L430.54 323.351L429.77 321.711C429.738 321.629 429.678 321.561 429.6 321.521L427.05 320.041C426.73 319.861 426.19 320.271 425.99 320.951L424.4 326.161C424.309 326.473 424.128 326.751 423.88 326.961L420.32 329.701C419.76 330.141 419.53 331.191 419.94 331.491L422.51 333.351C422.603 333.439 422.67 333.551 422.705 333.674C422.74 333.797 422.742 333.927 422.71 334.051L422.1 339.121C422.1 339.491 422.16 339.731 422.33 339.831L424.88 341.311C425.09 341.421 425.38 341.311 425.66 340.981L428.83 336.921C428.897 336.808 428.992 336.715 429.106 336.65C429.22 336.586 429.349 336.551 429.48 336.551L432.65 336.941C433.16 337.001 433.75 336.091 433.65 335.401L433.05 331.031C433.018 330.709 433.085 330.385 433.24 330.101L435.82 325.221Z" fill="#3D30F2" stroke="black" stroke-width="2"/>
<path opacity="0.15" d="M435.79 323.881C435.733 323.856 435.672 323.844 435.61 323.844C435.548 323.844 435.487 323.856 435.43 323.881L431.88 325.241C431.833 325.264 431.782 325.277 431.73 325.28C431.677 325.282 431.625 325.273 431.576 325.255C431.528 325.236 431.483 325.207 431.446 325.17C431.409 325.134 431.379 325.09 431.36 325.041L430.54 323.301L432.88 322.411C432.934 322.384 432.994 322.37 433.055 322.37C433.116 322.37 433.176 322.384 433.23 322.411L435.79 323.881Z" fill="white" stroke="black" stroke-width="2"/>
<path opacity="0.15" d="M427 327.581C426.91 327.896 426.729 328.178 426.48 328.391L422.93 331.131C422.767 331.26 422.633 331.424 422.54 331.611L419.99 330.131C420.089 329.948 420.221 329.785 420.38 329.651L423.93 326.911C424.179 326.701 424.359 326.423 424.45 326.111L427 327.581Z" fill="white" stroke="black" stroke-width="2"/>
<path opacity="0.1" d="M429.62 321.451C429.3 321.241 428.75 321.651 428.54 322.341L427 327.581L424.45 326.111L426.04 320.901C426.25 320.221 426.78 319.811 427.1 319.991C427.17 319.991 429.32 321.291 429.65 321.461L429.62 321.451Z" fill="white" stroke="black" stroke-width="2"/>
<path opacity="0.25" d="M425.06 334.771L422.54 333.321L419.94 331.451C419.65 331.231 419.68 330.631 419.94 330.141L422.49 331.621C422.24 332.101 422.2 332.711 422.49 332.921L425.06 334.771Z" fill="white" stroke="black" stroke-width="2"/>
<path opacity="0.15" d="M424.66 340.541C424.61 340.921 424.72 341.171 424.9 341.271L422.35 339.791C422.18 339.691 422.08 339.451 422.12 339.081L422.73 334.001C422.756 333.884 422.754 333.762 422.725 333.646C422.695 333.53 422.639 333.422 422.56 333.331L425.08 334.781C425.158 334.872 425.215 334.98 425.247 335.096C425.278 335.212 425.282 335.333 425.26 335.451L424.66 340.541Z" fill="white" stroke="black" stroke-width="2"/>
<path d="M429.77 321.661L431.36 325.041C431.379 325.089 431.409 325.134 431.446 325.17C431.483 325.207 431.527 325.236 431.576 325.254C431.625 325.273 431.677 325.282 431.729 325.279C431.782 325.277 431.833 325.264 431.88 325.241L435.43 323.881C436 323.661 436.22 324.461 435.82 325.221L433.24 330.051C433.085 330.335 433.018 330.659 433.05 330.981L433.65 335.351C433.75 336.041 433.16 336.951 432.65 336.891L429.48 336.501C429.349 336.501 429.22 336.536 429.106 336.6C428.992 336.665 428.897 336.758 428.83 336.871L425.66 340.931C425.15 341.581 424.56 341.351 424.66 340.541L425.26 335.471C425.29 335.348 425.288 335.219 425.255 335.096C425.222 334.974 425.158 334.862 425.07 334.771L422.49 332.911C422.09 332.621 422.31 331.561 422.88 331.131L426.43 328.391C426.678 328.181 426.859 327.903 426.95 327.591L428.54 322.381C428.79 321.551 429.52 321.131 429.77 321.661Z" fill="#3D30F2" stroke="black" stroke-width="2"/>
<path opacity="0.5" d="M429.77 321.661L431.36 325.041C431.379 325.089 431.409 325.134 431.446 325.17C431.483 325.207 431.527 325.236 431.576 325.254C431.625 325.273 431.677 325.282 431.729 325.279C431.782 325.277 431.833 325.264 431.88 325.241L435.43 323.881C436 323.661 436.22 324.461 435.82 325.221L433.24 330.051C433.085 330.335 433.018 330.659 433.05 330.981L433.65 335.351C433.75 336.041 433.16 336.951 432.65 336.891L429.48 336.501C429.349 336.501 429.22 336.536 429.106 336.6C428.992 336.665 428.897 336.758 428.83 336.871L425.66 340.931C425.15 341.581 424.56 341.351 424.66 340.541L425.26 335.471C425.29 335.348 425.288 335.219 425.255 335.096C425.222 334.974 425.158 334.862 425.07 334.771L422.49 332.911C422.09 332.621 422.31 331.561 422.88 331.131L426.43 328.391C426.678 328.181 426.859 327.903 426.95 327.591L428.54 322.381C428.79 321.551 429.52 321.131 429.77 321.661Z" fill="white" stroke="black" stroke-width="2"/>
<path d="M453.66 314.931C453.97 314.351 453.92 313.761 453.66 313.601L451.12 312.121C451.063 312.096 451.002 312.083 450.94 312.083C450.878 312.083 450.817 312.096 450.76 312.121L448.42 313.021L447.65 311.381C447.616 311.298 447.557 311.228 447.48 311.181C447.16 311.011 445 309.751 444.93 309.711C444.61 309.531 444.07 309.941 443.86 310.621L442.27 315.831C442.183 316.142 442.005 316.421 441.76 316.631L438.2 319.371C437.64 319.811 437.41 320.861 437.82 321.161L440.39 323.021C440.481 323.109 440.547 323.218 440.582 323.339C440.617 323.46 440.62 323.589 440.59 323.711L439.98 328.781C439.98 329.151 440.04 329.401 440.21 329.501L442.76 330.981C442.96 331.091 443.26 330.981 443.53 330.651L446.71 326.591C446.776 326.48 446.87 326.388 446.982 326.323C447.094 326.258 447.221 326.223 447.35 326.221L450.53 326.611C451.04 326.671 451.63 325.761 451.53 325.071L450.92 320.701C450.896 320.378 450.966 320.056 451.12 319.771L453.66 314.931Z" fill="#3D30F2" stroke="black" stroke-width="2"/>
<path opacity="0.15" d="M453.63 313.591C453.575 313.566 453.515 313.553 453.455 313.553C453.394 313.553 453.335 313.566 453.28 313.591L449.72 314.951C449.673 314.974 449.623 314.987 449.571 314.989C449.52 314.991 449.468 314.983 449.42 314.964C449.372 314.945 449.329 314.916 449.292 314.88C449.256 314.843 449.228 314.799 449.21 314.751L448.39 313.011L450.73 312.121C450.783 312.091 450.843 312.076 450.905 312.076C450.966 312.076 451.026 312.091 451.08 312.121L453.63 313.591Z" fill="white" stroke="black" stroke-width="2"/>
<path opacity="0.15" d="M444.8 317.291C444.709 317.606 444.529 317.888 444.28 318.101L440.73 320.841C440.566 320.97 440.433 321.134 440.34 321.321L437.79 319.841C437.885 319.658 438.014 319.495 438.17 319.361L441.72 316.621C441.975 316.415 442.16 316.136 442.25 315.821L444.8 317.291Z" fill="white" stroke="black" stroke-width="2"/>
<path opacity="0.1" d="M447.47 311.191C447.15 310.981 446.6 311.391 446.39 312.081L444.8 317.291L442.25 315.821L443.84 310.611C444.04 309.931 444.58 309.521 444.9 309.701C444.97 309.701 447.12 311.001 447.45 311.171L447.47 311.191Z" fill="white" stroke="black" stroke-width="2"/>
<path opacity="0.25" d="M442.91 324.451L440.39 323.001L437.82 321.141C437.52 320.921 437.56 320.321 437.82 319.831L440.37 321.311C440.11 321.791 440.08 322.401 440.37 322.611L442.91 324.451Z" fill="white" stroke="black" stroke-width="2"/>
<path opacity="0.15" d="M442.5 330.251C442.5 330.631 442.57 330.881 442.75 330.981L440.18 329.451C440.01 329.351 439.91 329.111 439.95 328.741L440.56 323.661C440.584 323.544 440.581 323.423 440.551 323.307C440.522 323.191 440.467 323.083 440.39 322.991L442.91 324.441C442.989 324.532 443.045 324.639 443.075 324.756C443.104 324.872 443.106 324.994 443.08 325.111L442.5 330.251Z" fill="white" stroke="black" stroke-width="2"/>
<path d="M447.619 311.371L449.209 314.751C449.229 314.8 449.258 314.844 449.295 314.88C449.333 314.917 449.377 314.946 449.426 314.965C449.475 314.983 449.527 314.992 449.579 314.99C449.631 314.987 449.683 314.974 449.729 314.951L453.279 313.591C453.849 313.371 454.069 314.171 453.659 314.931L451.089 319.761C450.935 320.046 450.866 320.368 450.889 320.691L451.499 325.061C451.599 325.751 451.009 326.661 450.499 326.601L447.319 326.211C447.19 326.213 447.063 326.248 446.951 326.313C446.839 326.378 446.746 326.47 446.679 326.581L443.499 330.641C442.999 331.291 442.409 331.061 442.499 330.251L443.109 325.181C443.141 325.057 443.14 324.927 443.104 324.804C443.069 324.681 443.002 324.57 442.909 324.481L440.339 322.621C439.929 322.331 440.159 321.271 440.719 320.841L444.279 318.101C444.526 317.89 444.707 317.612 444.799 317.301L446.389 312.081C446.639 311.261 447.369 310.841 447.619 311.371Z" fill="#3D30F2" stroke="black" stroke-width="2"/>
<path opacity="0.5" d="M447.619 311.371L449.209 314.751C449.229 314.8 449.258 314.844 449.295 314.88C449.333 314.917 449.377 314.946 449.426 314.965C449.475 314.983 449.527 314.992 449.579 314.99C449.631 314.987 449.683 314.974 449.729 314.951L453.279 313.591C453.849 313.371 454.069 314.171 453.659 314.931L451.089 319.761C450.935 320.046 450.866 320.368 450.889 320.691L451.499 325.061C451.599 325.751 451.009 326.661 450.499 326.601L447.319 326.211C447.19 326.213 447.063 326.248 446.951 326.313C446.839 326.378 446.746 326.47 446.679 326.581L443.499 330.641C442.999 331.291 442.409 331.061 442.499 330.251L443.109 325.181C443.141 325.057 443.14 324.927 443.104 324.804C443.069 324.681 443.002 324.57 442.909 324.481L440.339 322.621C439.929 322.331 440.159 321.271 440.719 320.841L444.279 318.101C444.526 317.89 444.707 317.612 444.799 317.301L446.389 312.081C446.639 311.261 447.369 310.841 447.619 311.371Z" fill="white" stroke="black" stroke-width="2"/>
<path d="M471.51 304.641C471.82 304.061 471.77 303.471 471.51 303.301L468.96 301.831C468.905 301.806 468.846 301.793 468.785 301.793C468.725 301.793 468.665 301.806 468.61 301.831L466.27 302.731L465.5 301.091C465.46 301.012 465.401 300.944 465.33 300.891C465 300.721 462.84 299.461 462.78 299.421C462.45 299.241 461.92 299.641 461.71 300.331L460.12 305.541C460.033 305.855 459.852 306.134 459.6 306.341L456 309.071C455.43 309.511 455.21 310.561 455.62 310.861L458.19 312.721C458.281 312.808 458.347 312.918 458.382 313.039C458.417 313.16 458.42 313.289 458.39 313.411L457.8 318.451C457.8 318.821 457.86 319.071 458.03 319.171L460.58 320.651C460.78 320.761 461.08 320.651 461.35 320.321L464.53 316.261C464.597 316.15 464.69 316.058 464.802 315.993C464.914 315.928 465.041 315.893 465.17 315.891L468.35 316.281C468.85 316.341 469.44 315.431 469.35 314.741L468.74 310.371C468.712 310.048 468.781 309.724 468.94 309.441L471.51 304.641Z" fill="#3D30F2" stroke="black" stroke-width="2"/>
<path opacity="0.15" d="M471.48 303.301C471.426 303.274 471.366 303.26 471.305 303.26C471.244 303.26 471.185 303.274 471.13 303.301L467.57 304.661C467.524 304.684 467.474 304.697 467.422 304.699C467.37 304.701 467.319 304.693 467.271 304.674C467.223 304.655 467.179 304.626 467.143 304.59C467.107 304.553 467.079 304.509 467.06 304.461L466.24 302.721L468.58 301.821C468.634 301.793 468.694 301.778 468.755 301.778C468.816 301.778 468.876 301.793 468.93 301.821L471.48 303.301Z" fill="white" stroke="black" stroke-width="2"/>
<path opacity="0.15" d="M462.65 307.001C462.556 307.317 462.371 307.598 462.12 307.811L458.57 310.551C458.409 310.681 458.279 310.845 458.19 311.031L455.64 309.551C455.731 309.366 455.861 309.203 456.02 309.071L459.57 306.331C459.821 306.124 460.003 305.845 460.09 305.531L462.65 307.001Z" fill="white" stroke="black" stroke-width="2"/>
<path opacity="0.1" d="M465.32 300.891C465 300.691 464.45 301.101 464.24 301.791L462.65 307.001L460.09 305.531L461.68 300.321C461.89 299.641 462.43 299.231 462.75 299.411C462.82 299.411 464.97 300.711 465.3 300.881L465.32 300.891Z" fill="white" stroke="black" stroke-width="2"/>
<path opacity="0.25" d="M460.759 314.191L458.229 312.741L455.659 310.881C455.359 310.661 455.399 310.061 455.659 309.571L458.209 311.051C457.949 311.531 457.909 312.141 458.209 312.351L460.759 314.191Z" fill="white" stroke="black" stroke-width="2"/>
<path opacity="0.15" d="M460.35 319.961C460.35 320.341 460.41 320.591 460.6 320.681L458 319.201C457.83 319.101 457.73 318.861 457.77 318.481L458.38 313.411C458.404 313.293 458.401 313.171 458.369 313.055C458.338 312.938 458.28 312.831 458.2 312.741L460.73 314.191C460.809 314.281 460.866 314.389 460.895 314.506C460.925 314.622 460.926 314.744 460.9 314.861L460.35 319.961Z" fill="white" stroke="black" stroke-width="2"/>
<path d="M465.47 301.081L467.06 304.461C467.079 304.51 467.109 304.554 467.146 304.59C467.183 304.627 467.228 304.656 467.276 304.674C467.325 304.693 467.377 304.702 467.43 304.699C467.482 304.697 467.533 304.684 467.58 304.661L471.13 303.301C471.69 303.081 471.92 303.881 471.51 304.641L468.94 309.451C468.781 309.734 468.711 310.058 468.74 310.381L469.35 314.751C469.44 315.441 468.85 316.351 468.35 316.291L465.17 315.901C465.041 315.903 464.914 315.938 464.802 316.003C464.69 316.068 464.596 316.16 464.53 316.271L461.35 320.331C460.85 320.981 460.26 320.741 460.35 319.941L460.96 314.871C460.989 314.747 460.986 314.618 460.951 314.495C460.916 314.373 460.85 314.261 460.76 314.171L458.19 312.311C457.78 312.021 458.01 310.961 458.57 310.531L462.13 307.791C462.371 307.577 462.548 307.3 462.64 306.991L464.23 301.771C464.49 300.971 465.22 300.541 465.47 301.081Z" fill="#3D30F2" stroke="black" stroke-width="2"/>
<path opacity="0.5" d="M465.47 301.081L467.06 304.461C467.079 304.51 467.109 304.554 467.146 304.59C467.183 304.627 467.228 304.656 467.276 304.674C467.325 304.693 467.377 304.702 467.43 304.699C467.482 304.697 467.533 304.684 467.58 304.661L471.13 303.301C471.69 303.081 471.92 303.881 471.51 304.641L468.94 309.451C468.781 309.734 468.711 310.058 468.74 310.381L469.35 314.751C469.44 315.441 468.85 316.351 468.35 316.291L465.17 315.901C465.041 315.903 464.914 315.938 464.802 316.003C464.69 316.068 464.596 316.16 464.53 316.271L461.35 320.331C460.85 320.981 460.26 320.741 460.35 319.941L460.96 314.871C460.989 314.747 460.986 314.618 460.951 314.495C460.916 314.373 460.85 314.261 460.76 314.171L458.19 312.311C457.78 312.021 458.01 310.961 458.57 310.531L462.13 307.791C462.371 307.577 462.548 307.3 462.64 306.991L464.23 301.771C464.49 300.971 465.22 300.541 465.47 301.081Z" fill="white" stroke="black" stroke-width="2"/>
<path d="M478.32 57.4512L470.32 60.8812L468.61 69.4112C468.561 69.6456 468.448 69.8617 468.283 70.0354C468.118 70.2091 467.909 70.3335 467.677 70.3947C467.446 70.456 467.202 70.4516 466.973 70.3821C466.744 70.3126 466.538 70.1807 466.38 70.0012L460.65 63.4512L452 64.4512C451.752 64.4888 451.499 64.4527 451.272 64.3477C451.044 64.2426 450.852 64.0731 450.72 63.8601C450.588 63.6472 450.522 63.4002 450.529 63.1498C450.536 62.8993 450.616 62.6564 450.76 62.4512L455.21 54.9812L451.59 47.0712C451.502 46.8588 451.473 46.6266 451.505 46.399C451.538 46.1714 451.631 45.9568 451.776 45.7777C451.92 45.5987 452.11 45.4618 452.325 45.3815C452.541 45.3011 452.774 45.2803 453 45.3212L461.48 47.2512L467.88 41.3612C468.056 41.1969 468.274 41.0854 468.51 41.0396C468.747 40.9937 468.991 41.0154 469.215 41.102C469.44 41.1886 469.635 41.3368 469.779 41.5294C469.923 41.7221 470.01 41.9515 470.03 42.1912L470.82 50.8512L478.4 55.1112C478.623 55.2192 478.81 55.3897 478.939 55.6021C479.067 55.8144 479.13 56.0594 479.122 56.3073C479.113 56.5552 479.033 56.7952 478.891 56.9983C478.748 57.2014 478.55 57.3588 478.32 57.4512Z" fill="white" stroke="black" stroke-width="2"/>
<path d="M434.23 42.6312C434.16 42.7235 434.076 42.8044 433.98 42.8712C433.811 42.9933 433.61 43.0655 433.402 43.0797C433.193 43.0938 432.985 43.0493 432.8 42.9512L428.35 40.6112L423.89 42.9512C423.706 43.0493 423.498 43.0938 423.289 43.0797C423.08 43.0655 422.88 42.9933 422.71 42.8712C422.539 42.7498 422.406 42.5814 422.328 42.3862C422.25 42.191 422.23 41.9775 422.27 41.7712L423.12 36.7712L419.51 33.2612C419.36 33.1155 419.254 32.9301 419.204 32.7266C419.155 32.5232 419.164 32.3098 419.23 32.1112C419.293 31.9122 419.411 31.7352 419.57 31.6006C419.729 31.466 419.924 31.3795 420.13 31.3512L425.13 30.6312L427.36 26.1112C427.452 25.9245 427.595 25.7674 427.772 25.6578C427.948 25.5482 428.152 25.4905 428.36 25.4912C428.568 25.4928 428.771 25.5514 428.947 25.6608C429.124 25.7702 429.267 25.926 429.36 26.1112L431.59 30.6312L436.59 31.3512C436.797 31.3814 436.991 31.4688 437.151 31.6036C437.31 31.7383 437.429 31.915 437.494 32.1136C437.558 32.3123 437.566 32.5251 437.516 32.7278C437.466 32.9306 437.36 33.1154 437.21 33.2612L433.6 36.7712L434.46 41.7712C434.499 42.0769 434.416 42.3856 434.23 42.6312ZM420 32.2412L419.94 32.3712C419.916 32.4459 419.913 32.5261 419.932 32.6024C419.952 32.6786 419.993 32.7477 420.05 32.8012L423.91 36.5712L423 41.8912C422.988 41.9695 422.998 42.0497 423.028 42.1229C423.058 42.1961 423.108 42.2595 423.173 42.3061C423.237 42.3527 423.313 42.3806 423.392 42.3868C423.471 42.393 423.55 42.3772 423.62 42.3412L428.4 39.8312L433.17 42.3412C433.239 42.3807 433.316 42.4015 433.395 42.4015C433.474 42.4015 433.552 42.3807 433.62 42.3412C433.687 42.2957 433.738 42.2315 433.769 42.1568C433.799 42.0821 433.807 42.0002 433.79 41.9212L432.88 36.6012L436.74 32.8312C436.796 32.7763 436.836 32.7073 436.855 32.6315C436.875 32.5557 436.873 32.4761 436.85 32.4012C436.828 32.3252 436.784 32.2573 436.723 32.2058C436.663 32.1543 436.589 32.1215 436.51 32.1112L431.16 31.3312L428.72 26.4512C428.687 26.3786 428.634 26.3171 428.566 26.2745C428.499 26.2319 428.42 26.2099 428.34 26.2112C428.268 26.2192 428.199 26.2454 428.139 26.2873C428.08 26.3293 428.032 26.3857 428 26.4512L425.62 31.2912L420.27 32.0712C420.163 32.093 420.067 32.1535 420 32.2412Z" fill="white" stroke="black" stroke-width="2"/>
<path d="M378.54 109.451C371.01 105.091 360.66 105.681 349.22 112.281C326.22 125.581 307.53 158.151 307.53 185.041C307.53 198.571 312.27 208.041 319.9 212.471C321.67 213.471 328.59 217.471 328.59 217.471C328.266 220.514 327.215 223.435 325.525 225.986C323.835 228.538 321.556 230.645 318.88 232.131C318.44 232.381 318.71 232.811 319.1 233.031L329.67 239.141C329.813 239.226 329.974 239.274 330.14 239.281C340.55 239.281 352.6 232.281 355.96 217.741C357.22 217.141 358.49 216.491 359.78 215.741C382.78 202.451 401.47 169.871 401.47 142.991C401.47 129.451 396.74 119.991 389.11 115.531L378.54 109.451Z" fill="#979595" stroke="black" stroke-width="2"/>
<path d="M359.78 118.381C336.78 131.671 318.09 164.251 318.09 191.131C318.09 209.381 326.68 220.301 339.4 221.301C338.92 227.101 337.23 233.621 329.4 238.231C328.78 238.601 329.59 239.291 330.11 239.291C340.52 239.291 352.57 232.291 355.93 217.751C357.19 217.151 358.46 216.501 359.75 215.751C382.75 202.461 401.44 169.881 401.44 143.001C401.44 116.121 382.8 105.091 359.78 118.381Z" fill="white" stroke="black" stroke-width="2"/>
<path d="M329.43 238.231C329.05 238.471 329.22 238.821 329.54 239.061L319.1 233.061C318.71 232.821 318.44 232.411 318.88 232.151C321.561 230.662 323.844 228.549 325.534 225.99C327.225 223.431 328.273 220.502 328.59 217.451L329.74 218.131L330.8 218.751C333.449 220.208 336.384 221.068 339.4 221.271C338.93 227.101 337.23 233.621 329.43 238.231Z" fill="#979595" stroke="black" stroke-width="2"/>
<path d="M355.38 195.341C354.27 194.551 353.71 193.131 353.71 191.081C353.734 188.945 354.298 186.85 355.35 184.991C356.305 183.133 357.76 181.578 359.55 180.501C361.25 179.521 362.647 179.405 363.74 180.151C364.83 180.891 365.38 182.291 365.38 184.341C365.348 186.515 364.774 188.646 363.71 190.541C362.778 192.418 361.336 193.995 359.55 195.091C357.89 196.041 356.5 196.131 355.38 195.341ZM353.89 140.981L365.2 134.451L363.31 172.571L355.78 176.921L353.89 140.981Z" fill="white" stroke="black" stroke-width="2"/>
<path opacity="0.2" d="M365.34 212.101C377.62 203.101 388.21 188.831 394.69 173.511C382.41 182.521 371.82 196.781 365.34 212.101Z" fill="white" stroke="black" stroke-width="2"/>
<path d="M443.861 264.201C439.601 264.251 436.431 261.271 434.441 257.521C447.201 241.831 455.831 220.931 455.831 202.651C455.831 189.101 451.081 179.581 443.431 175.181L432.881 169.101C425.351 164.751 415.011 165.351 403.581 171.941C380.581 185.241 361.891 217.811 361.891 244.701C361.891 258.231 366.621 267.701 374.251 272.151C376.031 273.151 383.041 277.211 384.771 278.221C392.311 282.611 402.681 282.031 414.141 275.411C417.209 273.625 420.123 271.584 422.851 269.311C430.591 275.441 440.031 268.761 443.771 265.561C444.271 265.141 444.331 264.201 443.861 264.201Z" fill="white" stroke="black" stroke-width="2"/>
<path d="M395.691 280.451C381.751 280.451 373.101 269.101 373.101 250.841C373.101 224.201 391.661 191.841 414.461 178.651C420.841 174.971 426.941 173.101 432.591 173.101C446.521 173.101 455.181 184.441 455.181 202.711C455.181 220.181 447.041 241.051 433.941 257.161L433.671 257.501L433.871 257.881C436.221 262.311 439.631 264.791 443.491 264.881C443.463 264.965 443.415 265.041 443.351 265.101C440.691 267.381 435.411 271.191 429.941 271.191C427.505 271.202 425.14 270.368 423.251 268.831L422.841 268.511L422.431 268.841C419.728 271.076 416.845 273.083 413.811 274.841C407.441 278.531 401.341 280.451 395.691 280.451Z" fill="white" stroke="black" stroke-width="2"/>
<path d="M432.59 172.451V173.751C446.12 173.751 454.53 184.851 454.53 202.701C454.53 220.041 446.45 240.751 433.44 256.751L432.89 257.421L433.3 258.181C435.46 262.261 438.5 264.771 441.99 265.401C439.22 267.611 434.63 270.561 429.94 270.561C427.65 270.572 425.426 269.787 423.65 268.341L422.83 267.691L422.02 268.361C419.347 270.592 416.494 272.599 413.49 274.361C407.21 277.981 401.22 279.821 395.69 279.821C382.16 279.821 373.75 268.721 373.75 250.821C373.75 224.391 392.16 192.261 414.75 179.191C421.03 175.571 427.02 173.731 432.55 173.731V172.451M432.55 172.451C426.99 172.451 420.73 174.261 414.1 178.091C391.1 191.381 372.41 223.951 372.41 250.841C372.41 269.991 381.88 281.101 395.65 281.101C401.21 281.101 407.47 279.291 414.1 275.461C417.169 273.675 420.083 271.635 422.81 269.361C424.81 270.995 427.318 271.879 429.9 271.861C435.62 271.861 441.09 267.861 443.73 265.611C444.23 265.191 444.29 264.251 443.82 264.251H443.72C439.52 264.251 436.38 261.301 434.4 257.571C447.16 241.881 455.79 220.981 455.79 202.701C455.79 183.551 446.32 172.451 432.55 172.451Z" fill="#3D30F2"/>
<path d="M432.59 172.451V173.751C446.12 173.751 454.53 184.851 454.53 202.701C454.53 220.041 446.45 240.751 433.44 256.751L432.89 257.421L433.3 258.181C435.46 262.261 438.5 264.771 441.99 265.401C439.22 267.611 434.63 270.561 429.94 270.561C427.65 270.572 425.426 269.787 423.65 268.341L422.83 267.691L422.02 268.361C419.347 270.592 416.494 272.599 413.49 274.361C407.21 277.981 401.22 279.821 395.69 279.821C382.16 279.821 373.75 268.721 373.75 250.821C373.75 224.391 392.16 192.261 414.75 179.191C421.03 175.571 427.02 173.731 432.55 173.731V172.451M432.55 172.451C426.99 172.451 420.73 174.261 414.1 178.091C391.1 191.381 372.41 223.951 372.41 250.841C372.41 269.991 381.88 281.101 395.65 281.101C401.21 281.101 407.47 279.291 414.1 275.461C417.169 273.675 420.083 271.635 422.81 269.361C424.81 270.995 427.318 271.879 429.9 271.861C435.62 271.861 441.09 267.861 443.73 265.611C444.23 265.191 444.29 264.251 443.82 264.251H443.72C439.52 264.251 436.38 261.301 434.4 257.571C447.16 241.881 455.79 220.981 455.79 202.701C455.79 183.551 446.32 172.451 432.55 172.451Z" stroke="black" stroke-width="2"/>
<path d="M412.001 231.301C413.214 228.391 414.607 225.559 416.171 222.821C417.249 220.942 418.23 219.01 419.111 217.031C419.718 215.674 420.041 214.208 420.061 212.721C420.061 210.721 419.461 209.491 418.261 209.011C417.061 208.531 415.481 208.881 413.491 210.011C411.523 211.166 409.801 212.695 408.421 214.511C406.88 216.524 405.622 218.737 404.681 221.091L397.331 219.581C398.975 215.238 401.305 211.187 404.231 207.581C407.094 204.043 410.586 201.063 414.531 198.791C419.198 196.125 422.934 195.291 425.741 196.291C428.548 197.291 429.954 200.151 429.961 204.871C429.974 207.002 429.698 209.125 429.141 211.181C428.648 213.044 427.978 214.856 427.141 216.591C426.351 218.211 425.321 220.141 424.071 222.381C422.859 224.448 421.764 226.582 420.791 228.771C420.12 230.352 419.78 232.054 419.791 233.771L410.621 239.071C410.584 236.417 411.053 233.78 412.001 231.301ZM411.001 257.031C409.891 256.241 409.331 254.821 409.331 252.761C409.355 250.625 409.919 248.53 410.971 246.671C411.926 244.816 413.376 243.262 415.161 242.181C416.871 241.181 418.261 241.081 419.361 241.831C420.461 242.581 421.001 243.981 421.001 246.031C420.967 248.201 420.393 250.329 419.331 252.221C418.399 254.101 416.953 255.679 415.161 256.771C413.551 257.731 412.171 257.811 411.051 257.031H411.001Z" fill="white" stroke="black" stroke-width="2"/>
<path d="M200.78 185.751L154.78 212.391L173.05 243.451C173.402 244.289 174.016 244.991 174.8 245.451C176.98 246.681 189.89 254.161 190.6 254.571C191.154 254.891 191.773 255.081 192.41 255.127C193.048 255.173 193.688 255.074 194.282 254.837C194.875 254.6 195.408 254.232 195.839 253.76C196.27 253.288 196.588 252.724 196.77 252.111L216.61 194.931L200.78 185.751Z" fill="white" stroke="black" stroke-width="2"/>
<path opacity="0.2" d="M200.78 185.751L154.78 212.391L173.05 243.451C173.402 244.289 174.016 244.991 174.8 245.451C176.98 246.681 189.89 254.161 190.6 254.571C191.154 254.891 191.773 255.081 192.41 255.127C193.048 255.173 193.688 255.074 194.282 254.837C194.875 254.6 195.408 254.232 195.839 253.76C196.27 253.288 196.588 252.724 196.77 252.111L216.61 194.931L200.78 185.751Z" stroke="black" stroke-width="2"/>
<path d="M170.61 221.531L188.88 252.591C189.229 253.38 189.813 254.043 190.551 254.489C191.289 254.936 192.146 255.145 193.007 255.088C193.868 255.032 194.691 254.712 195.364 254.172C196.037 253.632 196.528 252.899 196.77 252.071L216.61 194.891L170.61 221.531Z" fill="white" stroke="black" stroke-width="2"/>
<path d="M252.1 26.4512L78.6299 126.581C77.4669 127.335 76.4984 128.353 75.8033 129.552C75.1082 130.751 74.7062 132.097 74.6299 133.481V253.871C74.7036 255.25 75.1049 256.592 75.8005 257.785C76.4961 258.978 77.466 259.988 78.6299 260.731L92.8999 268.731C94.1408 269.356 95.5107 269.681 96.8999 269.681C98.2891 269.681 99.6589 269.356 100.9 268.731L274.38 168.541C275.541 167.786 276.508 166.767 277.203 165.569C277.898 164.37 278.301 163.025 278.38 161.641V41.2512C278.305 39.8724 277.904 38.5311 277.208 37.3382C276.513 36.1453 275.543 35.1352 274.38 34.3912L260.12 26.3912C258.871 25.7744 257.495 25.4586 256.103 25.469C254.71 25.4794 253.339 25.8158 252.1 26.4512Z" fill="white" stroke="black" stroke-width="2"/>
<path opacity="0.3" d="M278.31 40.5211C277.99 38.5211 276.36 37.8011 274.37 38.9411L100.91 139.101C99.7277 139.839 98.759 140.873 98.0996 142.101L75.8896 129.451C76.5562 128.297 77.4974 127.325 78.6296 126.621L252.11 26.4511C253.351 25.829 254.721 25.5051 256.11 25.5051C257.498 25.5051 258.868 25.829 260.11 26.4511L274.37 34.4511C275.42 35.1253 276.314 36.0152 276.993 37.0618C277.673 38.1084 278.121 39.2876 278.31 40.5211Z" stroke="black" stroke-width="2"/>
<path d="M96.9199 266.851V146.451C96.9962 145.069 97.3983 143.724 98.0935 142.526C98.7886 141.329 99.7571 140.313 100.92 139.561L274.38 39.4511C276.57 38.1811 278.38 39.2111 278.38 41.7511V162.101C278.301 163.484 277.898 164.83 277.203 166.028C276.508 167.227 275.541 168.245 274.38 169.001L100.9 269.151C98.6999 270.451 96.9199 269.391 96.9199 266.851Z" fill="white" stroke="black" stroke-width="2"/>
<path opacity="0.2" d="M100.9 268.691C99.6541 269.3 98.286 269.616 96.8997 269.616C95.5133 269.616 94.1452 269.3 92.8997 268.691L78.6396 260.691C77.4768 259.952 76.5072 258.945 75.8115 257.755C75.1158 256.566 74.714 255.227 74.6396 253.851V133.451C74.7107 132.031 75.1482 130.653 75.9097 129.451L98.0996 142.081C97.3682 143.258 96.9611 144.607 96.9196 145.991V266.381C96.9196 268.711 98.5597 270.051 100.9 268.691Z" stroke="black" stroke-width="2"/>
<path d="M145.59 170.451L143.86 169.451C143.198 169.072 142.448 168.873 141.685 168.873C140.922 168.873 140.172 169.072 139.51 169.451L128.94 175.551V161.111L148.51 149.821C149.426 149.28 150.185 148.51 150.711 147.585C151.238 146.661 151.513 145.615 151.51 144.551V136.451C151.513 135.387 151.238 134.341 150.711 133.417C150.185 132.492 149.426 131.722 148.51 131.181C147.585 130.645 146.534 130.364 145.465 130.364C144.396 130.364 143.346 130.645 142.42 131.181L115.28 146.851C113.673 147.777 112.339 149.111 111.412 150.717C110.485 152.324 109.998 154.146 110 156.001V231.191C109.995 232.256 110.27 233.304 110.796 234.231C111.323 235.157 112.082 235.93 113 236.471C113.926 237.005 114.976 237.285 116.045 237.285C117.114 237.285 118.164 237.005 119.09 236.471L125.86 232.571C126.778 232.03 127.537 231.257 128.064 230.331C128.59 229.404 128.865 228.356 128.86 227.291V197.791L145.52 188.171C146.18 187.788 146.728 187.238 147.109 186.576C147.49 185.914 147.69 185.164 147.69 184.401V174.241C147.704 173.48 147.517 172.73 147.148 172.064C146.78 171.399 146.242 170.843 145.59 170.451Z" fill="#3D30F2" stroke="black" stroke-width="2"/>
<path opacity="0.1" d="M119.71 236.111L119.13 236.451C118.204 236.983 117.154 237.263 116.086 237.262C115.018 237.262 113.969 236.981 113.043 236.447C112.118 235.913 111.349 235.146 110.813 234.222C110.277 233.298 109.993 232.249 109.99 231.181V155.991C109.993 154.245 110.429 152.527 111.26 150.991L117.35 154.501C116.516 156.035 116.079 157.754 116.08 159.501V233.991C116.082 234.415 116.194 234.832 116.407 235.2C116.619 235.568 116.923 235.874 117.29 236.088C117.656 236.302 118.072 236.417 118.497 236.421C118.921 236.425 119.34 236.318 119.71 236.111Z" fill="#3D30F2" stroke="black" stroke-width="2"/>
<path d="M128.94 161.111V182.591L145.57 173.001C145.793 172.87 146.046 172.801 146.304 172.8C146.562 172.799 146.816 172.866 147.04 172.995C147.264 173.124 147.449 173.31 147.577 173.535C147.705 173.759 147.772 174.013 147.77 174.271V184.451C147.769 185.211 147.57 185.957 147.191 186.615C146.812 187.273 146.267 187.82 145.61 188.201L128.94 197.821V227.311C128.944 228.374 128.669 229.419 128.143 230.342C127.616 231.265 126.857 232.034 125.94 232.571L119.78 236.131C119.41 236.346 118.99 236.459 118.562 236.46C118.134 236.46 117.714 236.347 117.344 236.133C116.973 235.919 116.666 235.611 116.453 235.24C116.24 234.869 116.128 234.449 116.13 234.021V159.501C116.13 157.647 116.618 155.825 117.545 154.219C118.472 152.613 119.805 151.279 121.41 150.351L148.29 134.831C148.625 134.638 149.005 134.536 149.391 134.536C149.778 134.537 150.157 134.639 150.492 134.832C150.827 135.026 151.104 135.304 151.297 135.639C151.49 135.975 151.591 136.355 151.59 136.741V144.571C151.593 145.631 151.317 146.673 150.79 147.592C150.264 148.512 149.505 149.277 148.59 149.811L128.94 161.111Z" fill="#3D30F2" stroke="black" stroke-width="2"/>
<path d="M187 115.691C186.692 114.647 186.151 113.687 185.418 112.882C184.685 112.077 183.78 111.449 182.769 111.045C181.758 110.64 180.669 110.47 179.583 110.548C178.498 110.625 177.443 110.948 176.5 111.491L169.77 115.381C168.903 115.881 168.15 116.556 167.56 117.364C166.969 118.171 166.554 119.093 166.34 120.071L146.27 211.451C146.113 212.221 146.201 213.021 146.522 213.739C146.843 214.456 147.381 215.055 148.06 215.451L149.9 216.511C150.47 216.84 151.117 217.013 151.775 217.013C152.434 217.013 153.08 216.84 153.65 216.511L161.76 211.831C162.889 211.14 163.808 210.155 164.42 208.981C165.104 207.796 165.607 206.515 165.91 205.181L169.17 188.521L185.57 179.051L187.27 185.821C187.511 186.704 188.061 187.471 188.82 187.981C189.5 188.381 194.23 191.091 194.91 191.501C195.349 191.689 195.831 191.755 196.305 191.692C196.778 191.628 197.226 191.438 197.6 191.141L207.5 185.421L187 115.691ZM173.67 165.521L177.18 147.451L177.39 146.451L181.11 161.221L173.67 165.521Z" fill="#3D30F2" stroke="black" stroke-width="2"/>
<path opacity="0.1" d="M194.83 191.451C193.94 190.921 189.48 188.371 188.83 187.981C188.071 187.471 187.521 186.704 187.28 185.821L185.58 179.051L190.12 176.431L193.37 189.331C193.61 190.179 194.123 190.925 194.83 191.451Z" fill="#3D30F2" stroke="black" stroke-width="2"/>
<path opacity="0.1" d="M187.201 164.731L181.111 161.211L177.391 146.451C177.391 146.451 177.391 146.451 177.391 146.391C177.711 144.951 178.031 143.311 178.391 141.491C178.821 139.221 179.221 136.801 179.601 134.211C180.034 136.291 180.464 138.208 180.891 139.961C181.321 141.711 181.721 143.211 182.101 144.471L187.201 164.731Z" fill="#3D30F2" stroke="black" stroke-width="2"/>
<path opacity="0.1" d="M152.47 214.451C152.416 214.691 152.425 214.941 152.496 215.176C152.568 215.412 152.699 215.625 152.878 215.794C153.056 215.963 153.276 216.084 153.514 216.143C153.753 216.202 154.003 216.198 154.24 216.131V216.211L153.67 216.531C153.1 216.86 152.454 217.033 151.795 217.033C151.137 217.033 150.49 216.86 149.92 216.531L148.06 215.451C147.381 215.055 146.843 214.456 146.522 213.739C146.201 213.021 146.113 212.221 146.27 211.451L166.33 120.111C166.514 119.266 166.853 118.462 167.33 117.741L173.42 121.261C172.938 121.976 172.598 122.777 172.42 123.621L152.47 214.451Z" fill="#3D30F2" stroke="black" stroke-width="2"/>
<path d="M207.51 185.451L197.6 191.171C196.49 191.811 195.6 191.931 194.92 191.531C194.162 191.019 193.612 190.253 193.37 189.371L190.12 176.451L169.12 188.541L165.87 205.201C165.556 206.537 165.051 207.82 164.37 209.011C163.761 210.184 162.841 211.167 161.71 211.851L154.54 216.001C154.299 216.138 154.023 216.203 153.746 216.187C153.469 216.171 153.203 216.075 152.979 215.911C152.755 215.748 152.583 215.523 152.484 215.264C152.385 215.005 152.362 214.723 152.42 214.451L172.37 123.591C172.584 122.615 173 121.695 173.591 120.889C174.182 120.083 174.934 119.41 175.8 118.911L182.27 115.171C182.73 114.906 183.244 114.749 183.774 114.711C184.303 114.673 184.834 114.756 185.327 114.954C185.82 115.151 186.262 115.458 186.619 115.85C186.976 116.243 187.24 116.712 187.39 117.221L207.51 185.451ZM187.2 164.751L182.1 144.451C181.72 143.201 181.32 141.691 180.89 139.941C180.46 138.191 180.03 136.271 179.6 134.191C179.23 136.781 178.82 139.191 178.4 141.471C177.98 143.751 177.56 145.711 177.18 147.411L172.12 173.411L187.2 164.751Z" fill="#3D30F2" stroke="black" stroke-width="2"/>
<path d="M254.91 150.451C256.656 147.449 258.19 144.328 259.5 141.111C260.853 137.795 261.988 134.394 262.9 130.931C263.82 127.431 264.521 123.878 265 120.291C265.491 116.668 265.738 113.017 265.74 109.361C265.847 103.986 265.159 98.6251 263.7 93.4511C262.659 89.5629 260.666 85.9954 257.9 83.0711C257.029 82.2366 256.054 81.5174 255 80.9311L249 77.4511C247.1 76.3499 244.963 75.7222 242.77 75.6211C239.25 75.4211 235.35 76.5577 231.07 79.0311C226.591 81.6614 222.621 85.0757 219.35 89.1111C215.743 93.4898 212.705 98.3082 210.31 103.451C205.156 114.543 202.467 126.62 202.43 138.851C202.326 144.234 203.021 149.602 204.49 154.781C205.528 158.681 207.529 162.257 210.31 165.181C211.177 166.041 212.156 166.781 213.22 167.381C214.22 167.941 218.17 170.241 219.15 170.811C221.074 171.924 223.239 172.552 225.46 172.641C228.98 172.814 232.887 171.664 237.18 169.191C239.007 168.137 240.742 166.932 242.37 165.591L244.85 168.441C245.188 168.788 245.572 169.087 245.99 169.331C246.69 169.741 251.67 172.601 252.05 172.831C252.718 173.242 253.498 173.431 254.28 173.371C255.728 173.198 257.119 172.703 258.35 171.921L268.86 165.861L254.91 150.451ZM245.53 125.351C244.893 128.879 243.87 132.327 242.48 135.631C241.261 138.559 239.628 141.297 237.63 143.761C235.805 146.009 233.59 147.91 231.09 149.371C229.258 150.558 227.149 151.247 224.97 151.371C223.874 149.595 223.093 147.643 222.66 145.601C221.891 142.068 221.535 138.457 221.6 134.841C221.581 130.837 221.936 126.839 222.66 122.901C223.281 119.375 224.287 115.928 225.66 112.621C226.89 109.68 228.534 106.929 230.54 104.451C232.377 102.173 234.613 100.248 237.14 98.7711C238.939 97.6207 241.007 96.9589 243.14 96.8511C244.248 98.6426 245.039 100.611 245.48 102.671C246.264 106.21 246.637 109.827 246.59 113.451C246.602 117.455 246.247 121.452 245.53 125.391V125.351Z" fill="#3D30F2" stroke="black" stroke-width="2"/>
<path opacity="0.1" d="M218.9 170.701C217.63 169.971 214.14 167.941 213.22 167.421C212.156 166.821 211.177 166.081 210.31 165.221C207.529 162.297 205.528 158.721 204.49 154.821C203.021 149.642 202.326 144.274 202.43 138.891C202.43 132.733 203.121 126.595 204.49 120.591C205.71 115.124 207.479 109.793 209.77 104.681L215.86 108.201C211.05 118.981 208.55 130.647 208.52 142.451C208.416 147.83 209.11 153.196 210.58 158.371C211.616 162.275 213.617 165.855 216.4 168.781C217.16 169.511 217.999 170.155 218.9 170.701Z" fill="#3D30F2" stroke="black" stroke-width="2"/>
<path opacity="0.1" d="M248.571 99.4511C247.983 98.7138 247.248 98.1065 246.413 97.6676C245.578 97.2287 244.662 96.9677 243.721 96.9011C243.551 96.9011 243.371 96.9011 243.201 96.9011C244.304 98.6905 245.092 100.656 245.531 102.711C246.295 106.239 246.651 109.842 246.591 113.451C246.606 117.475 246.252 121.492 245.531 125.451C244.894 128.979 243.871 132.427 242.481 135.731C241.262 138.66 239.629 141.398 237.631 143.861C235.806 146.109 233.591 148.01 231.091 149.471C229.259 150.658 227.15 151.347 224.971 151.471C225.189 151.822 225.433 152.156 225.701 152.471C226.287 153.214 227.027 153.823 227.868 154.256C228.71 154.689 229.635 154.936 230.581 154.981C232.928 154.969 235.222 154.274 237.181 152.981C239.681 151.52 241.896 149.619 243.721 147.371C245.714 144.905 247.347 142.167 248.571 139.241C249.962 135.934 250.985 132.483 251.621 128.951C252.342 124.992 252.697 120.975 252.681 116.951C252.739 113.352 252.383 109.759 251.621 106.241C251.144 103.772 250.1 101.447 248.571 99.4511Z" fill="#3D30F2" stroke="black" stroke-width="2"/>
<path opacity="0.1" d="M244.1 164.131C243.53 164.651 242.96 165.131 242.37 165.631L244.85 168.481C245.188 168.828 245.572 169.127 245.99 169.371C246.67 169.771 251.36 172.461 251.99 172.841C251.603 172.603 251.246 172.318 250.93 171.991L244.1 164.131Z" fill="#3D30F2" stroke="black" stroke-width="2"/>
<path d="M268.86 165.901L258.35 171.971C257.12 172.744 255.733 173.236 254.29 173.411C253.661 173.442 253.033 173.331 252.453 173.085C251.873 172.839 251.356 172.465 250.94 171.991L244.1 164.131C241.986 166.077 239.665 167.787 237.18 169.231C232.887 171.704 228.98 172.854 225.46 172.681C222.052 172.556 218.816 171.149 216.4 168.741C213.621 165.812 211.62 162.233 210.58 158.331C209.119 153.167 208.425 147.817 208.52 142.451C208.558 130.22 211.246 118.143 216.4 107.051C218.799 101.897 221.844 97.068 225.46 92.6811C228.734 88.648 232.703 85.2341 237.18 82.6011C241.46 80.1211 245.36 78.9844 248.88 79.1911C252.275 79.3532 255.485 80.7802 257.88 83.1911C260.652 86.1152 262.646 89.6874 263.68 93.5811C265.148 98.7367 265.842 104.082 265.74 109.441C265.742 113.097 265.498 116.748 265.01 120.371C264.522 123.974 263.814 127.544 262.89 131.061C261.975 134.521 260.836 137.919 259.48 141.231C258.175 144.45 256.641 147.571 254.89 150.571L268.86 165.901ZM221.6 134.901C221.536 138.52 221.891 142.134 222.66 145.671C223.132 148.127 224.158 150.442 225.66 152.441C226.251 153.18 226.991 153.785 227.832 154.218C228.673 154.65 229.596 154.9 230.54 154.951C232.888 154.938 235.181 154.243 237.14 152.951C239.64 151.49 241.856 149.589 243.68 147.341C245.677 144.875 247.313 142.138 248.54 139.211C249.915 135.902 250.921 132.451 251.54 128.921C252.267 124.963 252.622 120.945 252.6 116.921C252.663 113.322 252.308 109.728 251.54 106.211C251.072 103.755 250.045 101.438 248.54 99.4411C247.95 98.7035 247.214 98.0961 246.377 97.6573C245.541 97.2184 244.623 96.9575 243.68 96.8911C241.359 96.872 239.083 97.5401 237.14 98.8111C234.612 100.281 232.375 102.203 230.54 104.481C228.538 106.961 226.895 109.712 225.66 112.651C224.292 115.959 223.286 119.406 222.66 122.931C221.938 126.866 221.583 130.86 221.6 134.861V134.901Z" fill="#3D30F2" stroke="black" stroke-width="2"/>
</svg>
