<svg xmlns="http://www.w3.org/2000/svg" width="80" height="80" viewBox="0 0 80 80" fill="none">
<path d="M42.8629 53.4345C41.5044 59.6232 33.2025 58.8684 33.2025 53.4345C33.2025 48.0005 41.6554 47.0948 42.8629 53.4345C44.0705 48.4533 37.1271 44.076 32.4478 48.4533C29.5799 51.0194 29.5799 55.6986 32.4478 58.2647C35.4667 60.9816 39.6931 60.5288 41.8063 57.8118C42.8629 56.4533 43.3157 54.793 42.8629 53.4345Z" fill="#1d2939"/>
<path d="M3.92293 75.019C3.92293 75.4718 4.37576 75.9246 4.82859 75.9246C16.7531 75.6227 31.3946 75.1699 36.3758 75.019C33.9607 74.868 31.3946 74.868 28.9795 74.7171C33.6588 70.3397 30.0361 61.8869 22.9418 61.8869C16.1493 61.736 12.5267 69.736 16.6022 74.2643C12.9795 74.1133 9.50784 74.1133 5.8852 73.9624C7.24369 55.0944 22.9418 41.8114 39.9984 41.9624C58.7154 42.1133 72.7531 56.6039 73.9607 73.8114C71.6965 73.8114 69.4324 73.9624 67.1682 73.9624C67.6211 67.4718 62.338 61.1322 54.338 60.9812C46.0361 61.1322 40.6022 68.0756 41.6588 74.7171C39.8475 74.7171 38.1871 74.868 36.3758 74.868C41.5078 75.1699 55.6965 75.6227 75.0173 75.9246C75.6211 75.9246 76.0739 75.4718 76.0739 74.868C75.9229 54.7926 59.621 39.0944 40.1493 38.9435C40.7531 35.019 41.055 31.3963 41.206 27.7737C46.6399 32.302 52.8286 24.4529 57.5078 24.0001C60.5267 23.5473 61.2814 26.868 62.9418 26.868C63.6965 26.868 64.4512 26.2642 64.4512 25.3586C64.4512 25.2076 64.4512 10.5661 64.4512 11.4718C64.4512 11.1699 64.4512 10.868 64.1494 10.5661C59.772 5.28312 55.9984 6.94349 50.8663 10.4152C47.0927 12.9812 44.3758 14.9435 41.055 11.7737C40.9041 9.0567 40.4512 6.49066 39.9984 3.77368C38.1871 12.8303 38.0361 28.8303 39.6965 38.7926C19.772 39.2454 3.77199 55.3963 3.92293 75.019ZM41.6588 74.7171C44.8286 60.8303 62.9418 60.3775 66.7154 73.9624C62.1871 74.1133 54.9418 74.2643 41.6588 74.7171ZM61.5833 12.2265C61.5833 12.3775 61.5833 22.9435 61.5833 22.1888C61.4324 22.1888 61.4324 22.0378 61.2814 22.0378C53.7343 17.8114 47.8475 31.5473 41.3569 26.1133C41.5078 22.1888 41.5078 18.7171 41.206 13.8869C48.3003 20.0756 55.6965 5.28312 61.5833 12.2265ZM22.9418 64.9058C27.4701 64.9058 30.7909 69.736 28.6777 74.7171C17.8097 74.4152 19.621 74.4152 16.9041 74.4152C15.2437 69.4341 18.4135 64.9058 22.9418 64.9058Z" fill="#1d2939"/>
<path d="M60.9844 36.6792C61.7391 37.8868 62.7957 38.7924 64.0032 39.3962C63.7014 40.7547 63.5504 42.1132 63.8523 43.4717C65.0598 42.7169 65.9655 41.6603 66.5693 40.4528C68.2297 40.9056 69.5881 40.9056 70.6447 40.6037C70.041 39.6981 69.1353 38.6415 67.6259 37.8868C68.0787 36.2264 68.0787 34.8679 67.7768 33.8113C66.8712 34.4151 65.8146 35.3207 65.0598 36.8301C63.7014 36.3773 62.3429 36.2264 60.9844 36.6792Z" fill="#1d2939"/>
<path d="M7.09169 11.774C6.63886 13.4344 6.63886 14.9438 6.94074 16.0004C7.8464 15.3966 8.90301 14.34 9.80867 12.8306C11.469 13.2834 12.9785 13.2834 14.0351 12.9815C13.2804 12.0759 12.2238 11.0193 10.7143 10.1136C11.1672 8.45324 11.1672 6.94381 10.8653 5.88721C9.95961 6.64192 8.90301 7.54758 8.14829 9.05702C6.7898 8.75513 5.28037 8.60419 3.92188 8.90608C4.67659 10.1136 5.7332 11.0193 7.09169 11.774Z" fill="#1d2939"/>
<path d="M24.4564 23.548C24.1545 24.9065 24.0035 26.265 24.3054 27.6235C25.513 26.8688 26.4186 25.8122 27.0224 24.6046C28.3809 24.9065 29.7394 25.0575 31.0979 24.7556C30.4941 23.8499 29.5884 22.7933 28.079 22.0386C28.5318 20.3782 28.3809 19.1707 28.23 17.9631C27.0224 18.7179 26.2677 19.7745 25.513 20.982C24.1545 20.6801 22.796 20.5292 21.4375 20.8311C22.1922 22.0386 23.2488 22.9443 24.4564 23.548Z" fill="#1d2939"/>
</svg>