<?xml version="1.0" encoding="iso-8859-1"?>
<!-- Uploaded to: SVG Repo, www.svgrepo.com, Generator: SVG Repo Mixer Tools -->
<svg height="40px" width="40px" version="1.1" id="Layer_1" xmlns="http://www.w3.org/2000/svg" xmlns:xlink="http://www.w3.org/1999/xlink" 
	 viewBox="0 0 512.002 512.002" xml:space="preserve">
<g>
	<path style="fill:#EFBBAB;" d="M477.602,431.379l-29.728-26.132l-71.426-62.787l-27.853-24.484
		c-15.681-13.784-23.619-34.373-21.25-55.116l6.649-58.213c2.907-25.445-1.036-51.206-11.42-74.618L270.708,13.081
		c-3.398-7.662-14.849-5.238-14.849,3.145v271.635c0,23.23,8.14,45.727,23.006,63.578l36.172,43.438l60.765,72.97l29.411,35.681
		L477.602,431.379z"/>
	<path style="fill:#EFBBAB;" d="M34.399,431.394l29.728-26.132l71.426-62.787l27.853-24.484
		c15.681-13.784,23.619-34.373,21.25-55.116l-6.649-58.213c-2.907-25.445,1.036-51.206,11.42-74.618l51.725-116.946
		c3.398-7.662,14.707-5.238,14.707,3.145v271.635c0,23.23-7.999,45.727-22.864,63.578l-36.102,43.438l-60.695,72.97l-29.7,35.665
		L34.399,431.394z"/>
</g>
<g>
	<path style="fill:#EDA08E;" d="M241.152,13.096l-12.71,268.588c0,23.23-7.999,45.727-22.864,63.578L169.476,388.7l-60.695,72.97
		l-20.052,24.08l17.77,17.778l29.7-35.665l60.695-72.97l36.102-43.438c14.865-17.851,22.864-40.347,22.864-63.578V16.241
		C255.859,7.86,244.55,5.434,241.152,13.096z"/>
	<path style="fill:#EDA08E;" d="M270.56,13.096l12.71,268.588c0,23.23,7.999,45.727,22.864,63.578l36.102,43.438l60.695,72.97
		l20.052,24.08l-17.77,17.778l-29.7-35.665l-60.695-72.97l-36.102-43.438c-14.865-17.851-22.864-40.347-22.864-63.578V16.241
		C255.853,7.86,267.162,5.434,270.56,13.096z"/>
</g>
<path style="fill:#FFDB6C;" d="M165.411,440.64l-70.759-70.758c-8.963-8.963-8.963-23.498,0-32.461l0,0
	c8.963-8.963,23.498-8.963,32.461,0l70.759,70.759c8.963,8.963,8.963,23.498,0,32.461l0,0
	C188.907,449.604,174.374,449.604,165.411,440.64z"/>
<path style="fill:#FFB04C;" d="M197.872,408.179l-30.356-30.357c8.963,8.963,8.963,23.498,0,32.461l0,0
	c-8.963,8.963-23.498,8.963-32.461,0l30.356,30.356c8.963,8.963,23.498,8.963,32.461,0l0,0
	C206.835,431.677,206.835,417.142,197.872,408.179z"/>
<path style="fill:#FFDB6C;" d="M132.95,473.101l-70.759-70.759c-8.963-8.963-8.963-23.498,0-32.461l0,0
	c8.963-8.963,23.498-8.963,32.461,0l70.759,70.759c8.963,8.963,8.963,23.498,0,32.461l0,0
	C156.446,482.066,141.913,482.066,132.95,473.101z"/>
<path style="fill:#FFB04C;" d="M165.411,440.64l-30.356-30.356c8.963,8.963,8.963,23.498,0,32.461l0,0
	c-8.963,8.963-23.498,8.963-32.461,0l30.356,30.356c8.963,8.963,23.498,8.963,32.461,0l0,0
	C174.374,464.138,174.374,449.604,165.411,440.64z"/>
<path style="fill:#FFDB6C;" d="M341.068,440.64l70.759-70.759c8.963-8.963,8.963-23.498,0-32.461l0,0
	c-8.963-8.963-23.498-8.963-32.461,0l-70.759,70.759c-8.963,8.963-8.963,23.498,0,32.461l0,0
	C317.571,449.604,332.105,449.604,341.068,440.64z"/>
<path style="fill:#FFB04C;" d="M308.607,408.179l30.357-30.357c-8.963,8.963-8.963,23.498,0,32.461l0,0
	c8.963,8.963,23.498,8.963,32.461,0l-30.356,30.356c-8.963,8.963-23.498,8.963-32.461,0l0,0
	C299.642,431.677,299.642,417.142,308.607,408.179z"/>
<path style="fill:#FFDB6C;" d="M373.53,473.101l70.759-70.759c8.963-8.963,8.963-23.498,0-32.461l0,0
	c-8.963-8.963-23.498-8.963-32.461,0l-70.759,70.759c-8.963,8.963-8.963,23.498,0,32.461l0,0
	C350.032,482.066,364.566,482.066,373.53,473.101z"/>
<path style="fill:#FFB04C;" d="M341.068,440.64l30.356-30.356c-8.963,8.963-8.963,23.498,0,32.461l0,0
	c8.963,8.963,23.498,8.963,32.461,0l-30.356,30.356c-8.963,8.963-23.498,8.963-32.461,0l0,0
	C332.105,464.138,332.105,449.604,341.068,440.64z"/>

</svg>