<svg xmlns="http://www.w3.org/2000/svg" width="458" height="451" viewBox="0 0 458 451" fill="none">
<path d="M54.3911 400.889C29.1911 392.489 19.8911 402.722 18.3911 408.889V414.389H401.391L394.891 400.889C391.891 394.222 385.591 380.889 384.391 380.889H362.891L327.391 357.889C326.558 353.223 322.891 342.089 314.891 334.889C306.891 327.688 296.891 335.889 292.891 340.889C291.391 341.889 285.691 344.689 274.891 347.889C268.091 330.689 266.891 226.388 266.891 226.388C266.891 226.388 182.391 216.387 186.891 235.388C193.257 262.264 187.891 310.222 185.391 334.889L172.891 351.889C164.891 332.289 149.224 332.389 142.391 334.889L115.891 368.389L54.3911 400.889Z" fill="#9e8dba"/>
<path d="M302.891 417.391C332.391 417.391 361.639 417.391 390.891 417.391C390.578 406.49 378.096 397.364 366.603 399.754C363.513 400.396 361.475 399.958 358.971 397.908C339.815 382.221 308.376 392.447 303.009 415.97C302.936 416.288 302.951 416.625 302.891 417.391Z" fill="#9e8dba"/>
<path d="M285.891 429.391C315.391 429.391 344.639 429.391 373.891 429.391C373.578 418.49 361.096 409.364 349.603 411.754C346.513 412.396 344.475 411.958 341.971 409.908C322.815 394.221 291.376 404.447 286.009 427.97C285.936 428.288 285.951 428.625 285.891 429.391Z" fill="#9e8dba"/>
<path d="M162.545 364.593C156.49 358.252 145.942 356.435 136.698 360.205C127.842 363.816 122.323 370.522 119.402 379.433C118.786 381.313 118.163 382.134 116.037 382.19C107.045 382.43 99.2463 385.748 92.7788 392.007C91.3276 393.411 90.0223 393.97 87.8629 393.789C75.3764 392.739 63.368 402.48 60.3408 415.85C60.0593 417.094 59.8113 418.346 59.5019 419.813C39.7525 419.813 20.0703 419.813 0.0551758 419.813C0.902833 408.039 6.74404 399.329 16.2831 393.181C25.9176 386.971 36.4125 386.657 47.3784 390.584C50.2156 377.162 57.179 366.776 69.5299 360.925C81.897 355.067 94.261 355.435 106.494 363.235C106.106 362.638 105.983 362.339 105.77 362.135C101.704 358.238 101.702 358.24 103.693 353.07C113.366 327.966 146.272 320.367 166.075 338.666C166.653 339.2 167.218 339.748 168.148 340.63C170.48 329.208 176.697 321.139 187.152 316.25C188.292 322.024 180.096 377.576 177.025 385.306C169.95 382.63 162.909 381.918 156.74 387.425C154.114 389.768 152.529 392.874 152.027 396.461C155.175 391.77 158.967 388.231 164.902 387.94C166.276 387.873 167.692 387.917 169.039 388.171C175.205 389.335 176.268 390.941 174.54 396.791C173.151 401.497 171.537 406.137 169.912 411.148C168.02 408.795 166.666 406.836 165.036 405.144C162.312 402.315 158.89 400.935 154.938 400.705C154.048 400.653 152.827 400.062 152.395 399.339C147.54 391.209 140.677 385.809 131.444 383.521C129.721 383.094 127.977 382.753 126.259 382.376C127.543 368.497 144.265 360.357 162.545 364.593ZM147.106 341.126C156.518 339.289 162.687 343.853 167.608 351.415C166.983 343.962 163.629 339.192 158.024 337.421C154.086 336.177 150.029 337.498 147.106 341.126ZM40.9881 401.334C38.965 401.387 37.1555 403.367 37.1656 405.517C37.1747 407.547 39.1311 409.43 41.2347 409.432C43.4439 409.435 45.0546 407.662 44.9466 405.346C44.8441 403.147 43.0024 401.281 40.9881 401.334Z" fill="#9e8dba"/>
<path d="M332.428 382.484C322.871 383.725 314.922 387.058 308.95 394.267C305.942 397.899 303.102 399.958 298.553 401.606C293.94 403.276 290.926 406.714 288.44 410.785C288.105 410.807 287.771 410.829 287.437 410.851C285.668 404.735 283.848 398.632 282.227 392.477C282.091 391.961 283.159 390.853 283.902 390.427C290.275 386.773 298.877 388.388 303.589 394.05C304.274 394.873 304.882 395.759 305.601 396.715C306.226 386.994 293.995 381.361 280.334 385.267C275.095 362.64 272.307 339.71 270.04 316.109C281.152 321.14 287.079 329.486 289.784 340.78C291.126 339.627 292.391 338.604 293.587 337.506C309.742 322.668 338.283 326.427 351.14 347.178C352.899 350.018 354.007 353.255 355.511 356.262C356.399 358.037 355.944 359.103 354.309 360.168C352.957 361.049 351.901 362.382 350.812 363.612C369.72 349.109 404.11 358.675 410.412 390.564C423.343 386.082 435.344 387.496 446.002 396.55C452.587 402.142 457.444 411.754 457.61 419.763C437.845 419.763 418.085 419.763 398.134 419.763C397.823 418.305 397.527 416.863 397.207 415.426C394.63 403.866 385.116 394.441 373.92 394.021C368.747 393.827 365.196 392.197 361.442 389.106C356.032 384.651 349.492 382.476 342.477 382.227C340.101 382.142 339.098 381.357 338.285 379.135C333.149 365.096 322.105 357.551 308.1 358.445C302.617 358.795 297.786 360.874 293.139 365.165C303.533 362.073 312.981 361.861 321.683 367.925C326.793 371.485 330.152 376.362 332.428 382.484ZM310.462 341.681C307.573 337.833 302.508 336.618 297.918 338.56C293.313 340.508 289.655 346.596 290.313 351.451C295.054 344.046 301.137 339.553 310.462 341.681ZM420.299 405.533C420.305 403.398 418.24 401.244 416.144 401.425C413.895 401.619 412.585 402.935 412.494 405.26C412.398 407.699 414.109 409.545 416.366 409.497C418.508 409.451 420.292 407.653 420.299 405.533Z" fill="#9e8dba"/>
<path d="M154.891 417.391C125.392 417.391 96.1437 417.391 66.8911 417.391C67.2042 406.49 79.6864 397.364 91.1792 399.754C94.2688 400.396 96.3072 399.958 98.8108 397.908C117.967 382.221 149.406 392.447 154.773 415.97C154.846 416.288 154.831 416.625 154.891 417.391Z" fill="#9e8dba"/>
<path d="M170.891 429.391C141.392 429.391 112.144 429.391 82.8911 429.391C83.2042 418.49 95.6864 409.364 107.179 411.754C110.269 412.396 112.307 411.958 114.811 409.908C133.967 394.221 165.406 404.447 170.773 427.97C170.846 428.288 170.831 428.625 170.891 429.391Z" fill="#9e8dba"/>
<path d="M205.099 72.7675C201.506 98.9904 203.104 125.084 206.548 151.146C204.929 124.984 201.809 98.82 206.971 72.2097C209.384 72.0672 212.015 71.7839 214.645 71.7957C216.812 71.8052 217.525 70.9515 217.038 68.9315C213.716 67.2845 209.388 71.2182 206.552 67.2523C205.598 68.0115 204.471 68.9071 202.988 70.0868C202.527 63.9127 202.567 63.7762 207.572 63.4625C212.813 63.1339 218.063 62.9255 223.312 62.7787C225.31 62.7229 226.06 61.9885 225.407 59.8291C220.47 59.8291 215.473 59.8291 210.067 59.8291C210.872 56.6564 211.519 53.5834 212.498 50.6204C212.74 49.8895 214.054 49.0675 214.892 49.0488C222.785 48.871 230.689 48.6387 238.574 48.895C242.29 49.0157 245.957 50.2726 249.676 50.8099C251.947 51.1381 252.702 52.3946 253.192 54.4677C257.867 74.2105 258.923 94.2653 258.252 114.435C257.171 146.932 255.865 179.421 254.708 211.915C254.543 216.532 254.685 221.159 254.685 226.09C250.012 225.147 246.111 224.482 242.298 223.483C241.581 223.295 240.814 221.807 240.746 220.869C239.993 210.588 239.571 200.28 238.655 190.015C237.996 182.63 236.93 175.263 235.632 167.961C235.125 165.111 233.766 162.299 232.293 159.761C230.038 155.874 227.165 155.837 225.295 159.876C223.405 163.96 221.568 168.361 221.118 172.766C219.518 188.426 218.466 204.144 217.351 219.851C217.182 222.23 216.879 223.612 214.053 223.923C210.643 224.299 207.308 225.35 203.75 226.152C203.581 222.794 203.365 219.648 203.271 216.497C202.204 180.823 200.937 145.153 200.23 109.471C200.003 98.0129 201.293 86.5262 201.831 75.0494C201.936 72.8176 202.79 71.9735 205.099 72.7675ZM228.572 115.913C238.399 115.879 246.377 108.03 246.254 98.5176C246.134 89.3053 237.832 81.2659 228.504 81.3308C219.034 81.397 211.287 89.2648 211.254 98.8492C211.221 108.155 219.129 115.947 228.572 115.913ZM233.158 144.509C233.131 142.046 230.975 139.973 228.528 140.058C226.034 140.145 224.333 142.003 224.421 144.545C224.501 146.85 226.626 148.965 228.816 148.919C231.118 148.872 233.182 146.776 233.158 144.509ZM224.586 70.2965C223.401 69.553 222.787 68.8591 222.313 68.9441C221.639 69.0653 221.067 69.7578 220.451 70.2062C220.947 70.7484 221.403 71.6741 221.948 71.7303C222.56 71.7935 223.252 71.07 224.586 70.2965Z" fill="#9e8dba"/>
<path d="M157.081 307.044C156.591 303.671 155.893 300.313 155.643 296.922C153.717 270.708 152.757 244.459 154.378 218.203C155.003 208.065 158.743 198.746 164.262 190.176C171.182 179.434 178.241 168.773 184.866 157.851C190.552 148.476 193.432 138.084 194.332 127.155C194.378 126.593 194.533 126.041 194.683 125.234C196.305 129.19 196.706 139.332 195.633 143.997C193.783 152.05 189.821 159.152 185.574 166.082C179.571 175.881 173.321 185.53 167.203 195.259C162.745 202.347 160.184 210.051 159.863 218.482C166.403 200.8 178.635 186.444 187.826 170.321C190.661 165.348 193.362 160.3 196.195 155.16C196.287 155.44 196.474 155.753 196.48 156.07C196.94 180.644 197.413 205.218 197.797 229.793C197.849 233.152 197.339 236.516 197.292 239.88C197.265 241.812 196.526 242.498 194.651 243.004C180.719 246.76 169.608 254.294 163.091 267.564C159.254 275.378 158.463 283.913 157.953 292.429C157.664 297.257 157.9 302.118 157.9 306.964C157.627 306.991 157.354 307.018 157.081 307.044Z" fill="#9e8dba"/>
<path d="M261.74 154.899C271.239 176.78 288.2 194.356 297.079 216.595C297.366 211.035 295.629 203.766 291.788 197.354C286.088 187.837 280.032 178.535 274.184 169.107C269.324 161.27 264.563 153.393 262.289 144.289C260.71 137.966 261.894 131.773 262.925 125.5C263.516 129.007 264.049 132.525 264.711 136.019C267.088 148.549 273.249 159.369 280.082 169.885C285.21 177.776 290.502 185.571 295.344 193.635C300.696 202.546 303.646 212.418 303.608 222.772C303.524 246.255 302.994 269.738 302.439 293.216C302.33 297.81 301.29 302.381 300.412 306.902C300.098 300.279 299.929 293.645 299.442 287.034C297.8 264.752 285.368 249.399 263.785 243.166C261.046 242.375 260.157 241.12 260.181 238.478C260.379 216.381 260.521 194.284 260.661 172.187C260.697 166.465 260.667 160.742 260.667 155.02C261.024 154.98 261.382 154.94 261.74 154.899Z" fill="#9e8dba"/>
<path d="M201.428 342.158C199.863 349.872 198.298 357.586 196.733 365.3C196.519 365.268 196.305 365.236 196.092 365.203C197.827 339.937 199.562 314.671 201.309 289.243C203.249 289.243 204.998 289.243 207.267 289.243C206.989 294.599 206.759 299.893 206.432 305.18C205.152 325.855 203.755 346.524 202.621 367.206C202.41 371.045 203.209 374.939 203.995 378.873C206.721 377.641 208.246 375.727 208.645 373.279C209.534 367.823 210.703 362.327 210.76 356.837C210.979 335.629 210.806 314.415 210.78 293.204C210.778 291.942 210.78 290.68 210.78 289.08C214.142 289.08 217.195 288.927 220.206 289.212C220.793 289.268 221.67 291.037 221.65 292C221.461 301.018 221.17 310.034 220.783 319.046C220.084 335.287 219.31 351.525 218.535 367.763C218.408 370.423 218.115 373.074 217.7 375.718C217.267 363.072 216.834 350.426 216.4 337.78C215.976 337.765 215.551 337.75 215.126 337.735C213.713 354.897 212.263 372.056 210.901 389.222C210.008 400.484 207.268 436.758 206.358 448.018C206.301 448.72 205.374 449.909 204.825 449.925C199.698 450.072 194.565 450.012 188.704 450.012C195.427 422.433 202.199 370.096 201.428 342.158Z" fill="#9e8dba"/>
<path d="M256.112 342.158C257.677 349.872 259.242 357.586 260.807 365.3C261.021 365.268 261.235 365.236 261.448 365.203C259.713 339.937 257.978 314.671 256.231 289.243C254.291 289.243 252.542 289.243 250.273 289.243C250.551 294.599 250.781 299.893 251.108 305.18C252.388 325.855 253.785 346.524 254.92 367.206C255.13 371.045 254.331 374.939 253.545 378.873C250.819 377.641 249.294 375.727 248.895 373.279C248.006 367.823 246.837 362.327 246.78 356.837C246.561 335.629 246.734 314.415 246.76 293.204C246.762 291.942 246.76 290.68 246.76 289.08C243.398 289.08 240.346 288.927 237.334 289.212C236.747 289.268 235.87 291.037 235.89 292C236.079 301.018 236.37 310.034 236.757 319.046C237.456 335.287 238.23 351.525 239.005 367.763C239.132 370.423 239.425 373.074 239.84 375.718C240.273 363.072 240.706 350.426 241.14 337.78C241.564 337.765 241.989 337.75 242.414 337.735C243.827 354.897 245.277 372.056 246.639 389.222C247.532 400.484 250.272 436.758 251.182 448.018C251.239 448.72 252.166 449.909 252.715 449.925C257.842 450.072 262.975 450.012 268.836 450.012C262.113 422.433 255.341 370.096 256.112 342.158Z" fill="#9e8dba"/>
<path d="M237.657 265.275C231.866 265.275 226.458 265.275 220.204 265.275C221.142 237.674 222.075 210.236 223.02 182.421C226.739 182.421 229.877 182.279 232.981 182.542C233.601 182.594 234.517 184.169 234.573 185.086C235.451 199.314 236.361 213.544 236.945 227.787C237.408 239.062 237.438 250.355 237.654 261.641C237.675 262.718 237.657 263.796 237.657 265.275Z" fill="#9e8dba"/>
<path d="M251.026 47.5003C239.017 44.4709 227.171 43.6533 214.709 45.4188C218.308 30.8901 222.888 17.3132 230.487 4.82193C228.679 2.48422 227.747 3.62256 226.614 5.45777C219.258 17.376 214.614 30.4042 210.801 43.7745C210.337 45.4027 209.958 46.8614 207.227 46.2595C208.234 42.6205 209.149 39.0267 210.223 35.4818C213.51 24.6349 217.943 14.2826 223.784 4.55172C224.09 4.04313 224.392 3.52842 224.747 3.05426C227.373 -0.463195 230.732 -0.555564 233.194 3.12706C235.278 6.24356 237.043 9.59365 238.73 12.9503C243.815 23.0638 247.877 33.5734 250.565 44.5886C250.767 45.4153 250.836 46.2743 251.026 47.5003Z" fill="#9e8dba"/>
<path d="M216.512 269.562C225.074 269.562 233.07 269.562 241.349 269.562C241.349 265.122 241.349 260.727 241.349 255.818C246.824 256.821 251.967 257.653 257.033 258.822C257.696 258.976 257.963 260.851 258.726 262.677C254.517 262.123 251.341 261.705 248.067 261.275C247.554 263.266 247.547 264.524 249.916 264.764C252.659 265.043 255.373 265.612 258.328 266.092C258.328 267.321 258.328 268.556 258.328 270.214C254.962 269.806 251.6 269.398 248.232 268.989C247.152 271.2 248.05 272.032 250.033 272.319C252.768 272.715 255.492 273.182 258.359 273.64C258.359 274.788 258.359 275.84 258.359 277.521C238.839 274.719 219.334 274.413 199.564 277.786C199.471 276.247 199.397 275.021 199.313 273.628C202.289 273.197 205.103 272.744 207.93 272.393C209.879 272.152 210.469 271.137 209.891 269.045C206.561 269.485 203.196 269.93 199.591 270.406C199.591 268.852 199.591 267.539 199.591 266.112C202.925 265.577 206.13 265.063 209.491 264.523C209.491 263.441 209.491 262.449 209.491 261.258C206.11 261.74 203.006 262.184 199.815 262.639C199.138 260.313 199.191 258.888 202.147 258.494C206.822 257.872 211.436 256.781 216.511 255.805C216.512 260.663 216.512 264.969 216.512 269.562Z" fill="#9e8dba"/>
<path d="M211.234 232.492C208.724 232.864 206.338 233.218 203.902 233.579C203.196 231.265 203.576 229.934 206.18 229.544C209.677 229.019 213.128 228.184 216.741 227.453C216.741 235.757 216.741 243.714 216.741 251.905C211.203 252.974 205.923 253.994 200.133 255.112C200.684 249.607 201.14 244.424 201.791 239.266C201.88 238.567 202.839 237.669 203.582 237.422C205.448 236.802 207.408 236.42 209.356 236.096C211.241 235.782 211.943 234.856 211.234 232.492Z" fill="#9e8dba"/>
<path d="M254.34 233.407C250.976 233.044 248.373 232.762 245.769 232.48C245.572 232.776 245.374 233.072 245.176 233.369C245.984 234.211 246.771 235.074 247.615 235.877C247.793 236.047 248.187 235.978 248.477 236.043C256.137 237.757 256.134 237.758 256.753 245.533C256.994 248.564 257.255 251.592 257.536 254.987C251.994 253.947 246.878 252.988 241.584 251.994C241.482 250.148 241.312 248.388 241.302 246.626C241.267 240.407 241.288 234.188 241.288 227.508C245.172 228.264 249.138 228.907 253.007 229.92C253.622 230.081 253.8 231.908 254.34 233.407Z" fill="#9e8dba"/>
<path d="M234.149 285.19C234.149 282.731 234.149 280.994 234.149 278.719C239.112 279.211 243.878 279.665 248.64 280.163C250.798 280.389 252.95 280.684 255.1 280.98C258.68 281.473 258.713 281.538 257.946 285.19C250.084 285.19 242.255 285.19 234.149 285.19Z" fill="#9e8dba"/>
<path d="M223.426 278.625C223.426 281.096 223.426 282.842 223.426 285.182C215.608 285.182 207.854 285.182 199.852 285.182C199.852 284.311 199.852 282.998 199.852 281.327C207.574 280.442 215.267 279.56 223.426 278.625Z" fill="#9e8dba"/>
<path d="M224.066 178.891C223.546 175.981 224.501 174.641 227.295 174.846C228.273 174.918 229.265 174.891 230.245 174.824C233.073 174.628 234.227 175.947 233.862 178.891C230.65 178.891 227.447 178.891 224.066 178.891Z" fill="#9e8dba"/>
<path d="M204.54 60.4515C204.812 53.4384 205.997 50.5725 208.619 50.3594C208.358 57.1934 207.276 60.007 204.54 60.4515Z" fill="#9e8dba"/>
<path d="M232.635 171.503C230.07 171.503 227.73 171.503 225.207 171.503C224.682 169.678 225.138 168.631 227.286 168.413C231.513 167.983 232.317 168.35 232.635 171.503Z" fill="#9e8dba"/>
<path d="M228.719 86.5549C235.295 86.5928 241.208 92.4153 241.151 98.7978C241.094 105.223 235.068 110.959 228.47 110.867C221.986 110.776 216.209 105.014 216.267 98.6953C216.328 91.9468 221.899 86.5161 228.719 86.5549Z" fill="#347064"/>
</svg>