<?xml version="1.0" standalone="no"?>
<!DOCTYPE svg PUBLIC "-//W3C//DTD SVG 20010904//EN"
 "http://www.w3.org/TR/2001/REC-SVG-20010904/DTD/svg10.dtd">
<svg version="1.0" xmlns="http://www.w3.org/2000/svg"
 width="342.000000pt" height="170.000000pt" viewBox="0 0 342.000000 170.000000"
 preserveAspectRatio="xMidYMid meet">

<g transform="translate(0.000000,170.000000) scale(0.100000,-0.100000)"
fill="#000000" stroke="none">
<path d="M775 1658 c-9 -25 -217 -606 -267 -743 -28 -77 -63 -174 -79 -215
-16 -41 -29 -80 -29 -87 0 -10 44 -13 195 -13 l195 0 0 535 c0 294 -2 535 -5
535 -3 0 -8 -6 -10 -12z"/>
<path d="M840 750 l0 -240 453 -1 c248 0 534 -2 635 -3 170 -2 182 -1 182 16
0 21 -11 23 -29 6 -10 -11 -11 -10 -6 4 7 17 4 20 -27 22 -7 1 -15 4 -18 8 -3
4 -28 13 -55 20 -28 7 -52 16 -55 20 -3 4 -28 13 -55 20 -28 7 -53 17 -57 22
-3 5 -20 9 -37 9 -17 0 -31 4 -31 8 0 10 -117 49 -124 41 -3 -3 -6 0 -6 7 0 7
-4 10 -9 6 -5 -3 -12 -1 -16 5 -4 6 -11 7 -17 4 -6 -4 -13 -2 -17 3 -3 5 -45
23 -93 40 -64 23 -89 28 -98 19 -9 -8 -11 -8 -8 3 3 15 -178 85 -195 74 -6 -3
-7 -1 -4 4 4 6 -2 13 -13 16 -13 3 -18 1 -13 -6 3 -7 -2 -5 -13 4 -16 14 -41
25 -74 34 -3 1 -12 5 -20 8 -8 4 -52 20 -97 36 l-83 30 0 -239z m17 188 c-3
-7 -5 -2 -5 12 0 14 2 19 5 13 2 -7 2 -19 0 -25z m578 -178 c3 -6 -1 -7 -9 -4
-18 7 -21 14 -7 14 6 0 13 -4 16 -10z m160 -80 c3 -6 -1 -7 -9 -4 -18 7 -21
14 -7 14 6 0 13 -4 16 -10z m59 -6 c3 -8 2 -12 -4 -9 -6 3 -10 10 -10 16 0 14
7 11 14 -7z m109 -51 c-7 -2 -19 -2 -25 0 -7 3 -2 5 12 5 14 0 19 -2 13 -5z
m272 -103 c-3 -5 -12 -10 -18 -10 -7 0 -6 4 3 10 19 12 23 12 15 0z"/>
<path d="M50 535 c19 -7 179 -67 355 -133 176 -66 332 -125 348 -131 l27 -11
0 145 0 145 -382 -1 c-329 0 -378 -2 -348 -14z"/>
<path d="M2126 515 c4 -8 10 -12 15 -9 11 6 2 24 -11 24 -5 0 -7 -7 -4 -15z"/>
<path d="M2160 509 c0 -5 9 -9 20 -9 11 0 20 2 20 4 0 2 -9 6 -20 9 -11 3 -20
1 -20 -4z"/>
<path d="M840 258 c0 -105 2 -189 4 -187 2 2 67 88 144 192 l141 187 -144 0
-145 0 0 -192z"/>
<path d="M1178 444 c-3 -5 -5 -76 -4 -159 l1 -150 28 -3 27 -3 0 66 0 66 32
-3 c28 -3 39 -12 73 -65 37 -58 43 -62 77 -63 l38 0 -30 48 c-16 27 -39 57
-50 67 -26 24 -25 32 6 39 49 13 62 102 20 144 -16 16 -210 30 -218 16z m170
-56 c19 -19 14 -56 -8 -68 -12 -6 -40 -10 -63 -8 -38 3 -42 6 -45 31 -6 48 3
57 56 57 26 0 53 -5 60 -12z"/>
<path d="M2470 290 l0 -160 30 0 c29 0 30 1 30 47 0 37 6 53 27 75 l26 28 41
-73 c39 -67 44 -72 79 -75 20 -2 37 -1 37 3 0 3 -25 45 -55 92 -30 48 -55 92
-55 98 0 6 23 33 50 60 28 27 50 53 50 57 0 4 -15 8 -34 8 -30 0 -43 -9 -100
-72 l-66 -73 0 73 0 72 -30 0 -30 0 0 -160z"/>
<path d="M1543 363 c-12 -2 -34 -18 -49 -36 -23 -28 -26 -37 -22 -91 4 -49 9
-63 32 -83 39 -33 108 -32 142 2 14 14 22 30 19 35 -10 15 -52 12 -59 -5 -7
-18 -47 -20 -64 -3 -7 7 -12 20 -12 30 0 16 9 18 70 18 l70 0 0 35 c0 61 -63
109 -127 98z m67 -62 c18 -34 11 -41 -35 -41 -37 0 -45 3 -45 18 0 41 60 59
80 23z"/>
<path d="M1810 354 c-39 -17 -43 -17 -35 -4 4 6 -7 10 -25 10 l-31 0 3 -157 3
-158 25 0 c23 0 25 4 28 53 3 49 13 65 27 42 8 -13 61 -13 87 1 25 13 48 67
48 112 0 43 -37 98 -71 108 -15 4 -40 1 -59 -7z m52 -51 c38 -35 14 -133 -33
-133 -43 0 -66 94 -32 132 20 22 41 23 65 1z"/>
<path d="M2037 360 c-26 -8 -56 -35 -57 -51 0 -14 50 -16 62 -2 17 21 63 13
63 -11 0 -15 -12 -23 -50 -32 -59 -16 -89 -46 -80 -83 3 -14 13 -32 22 -39 22
-16 85 -16 102 1 11 9 14 10 18 0 3 -7 17 -13 31 -13 l27 0 -3 83 c-4 104 -8
124 -30 136 -29 15 -76 20 -105 11z m73 -144 c0 -30 -22 -49 -52 -44 -15 2
-24 11 -26 25 -3 18 4 24 30 32 48 13 48 13 48 -13z"/>
<path d="M2830 363 c-19 -7 -60 -44 -60 -54 0 -14 50 -16 62 -2 17 21 63 13
63 -11 0 -15 -11 -23 -46 -31 -59 -15 -68 -21 -80 -52 -9 -25 2 -60 25 -75 18
-12 81 -9 95 5 11 9 14 9 18 0 3 -7 17 -13 31 -13 l27 0 -3 97 c-3 75 -8 102
-20 115 -18 18 -87 31 -112 21z m70 -147 c0 -27 -34 -58 -55 -49 -19 7 -27 33
-14 49 9 11 20 15 62 23 4 0 7 -10 7 -23z"/>
<path d="M3091 351 c-16 -16 -21 -18 -21 -6 0 9 -9 15 -25 15 l-25 0 0 -115
c0 -114 0 -115 24 -115 22 0 23 4 30 82 4 44 9 85 12 90 3 4 18 8 33 8 21 0
30 6 34 22 7 26 8 24 -20 32 -15 5 -28 1 -42 -13z"/>
<path d="M3240 352 c-73 -36 -88 -136 -29 -194 22 -23 36 -28 76 -28 72 1 113
42 113 115 0 51 -25 94 -65 111 -44 18 -53 18 -95 -4z m85 -52 c27 -30 25 -88
-4 -111 -29 -23 -33 -23 -60 -1 -32 26 -37 72 -11 105 26 32 50 34 75 7z"/>
<path d="M2231 278 c64 -171 61 -156 39 -178 -11 -11 -27 -20 -35 -20 -8 0
-15 -9 -15 -20 0 -16 7 -20 31 -20 62 0 67 8 147 238 l30 83 -31 -3 c-28 -3
-32 -8 -52 -68 -11 -36 -24 -72 -27 -80 -3 -8 -16 21 -29 65 -24 77 -26 80
-57 83 l-32 3 31 -83z"/>
</g>
</svg>
